<svg width="424" height="348" viewBox="0 0 424 348" fill="none" xmlns="http://www.w3.org/2000/svg">
<path d="M280.595 344.485C285.592 344.485 290.452 344.226 295.174 343.71C327.053 340.302 352.258 325.738 369.019 305.403C377.886 294.804 384.591 282.039 388.642 268.044C392.457 254.794 393.57 240.7 391.893 226.868C380.31 131.524 283.029 177.888 323.811 119.898C364.593 61.908 284.756 -11.8472 254.122 5.60796C223.488 23.0631 257.271 60.3955 181.568 42.7466C105.865 25.0977 121.53 102.642 121.53 102.642" stroke="#CCDDE2" stroke-width="4.82" stroke-miterlimit="10"/>
<path d="M76.7774 262.198C76.7774 262.198 42.1072 233.386 28.7222 265.25C28.7222 265.25 42.7992 207.432 90.8127 186.753C90.8127 186.753 104.537 177.904 105.141 183.249C105.744 188.593 109.725 191.322 111.466 191.258C113.208 191.193 127.912 192.259 128.423 189.713C128.934 187.167 127.958 179.54 135.25 179.486C142.542 179.432 182.107 190.698 193.421 202.604C193.421 202.604 173.728 230.156 184.257 260.535L175.387 258.043C175.387 258.043 180.858 312.943 173.399 344.877H44.5641C44.5641 344.877 57.4429 346.755 70.6515 335.835L89.8327 307.308C89.8327 307.308 98.2437 292.538 115.428 290.429C115.428 290.429 125.209 289.191 125.116 283.803C125.023 278.415 128.641 287.253 133.476 279.465C134.066 279.465 145.816 280.25 145.816 280.25C145.816 280.25 154.64 281.208 156.298 272.08C157.956 262.951 164.068 198.879 161.871 195.031C159.675 191.182 158.834 191.134 140.294 191.263C121.753 191.392 105.461 187.108 103.102 197.797C100.742 208.487 98.0161 248.989 98.0161 248.989C98.0161 248.989 87.5663 252.16 79.6058 265.277C79.6337 265.271 76.7774 271.665 76.7774 262.198Z" fill="#2E2E2E"/>
<path d="M76.7773 242.74V267.962" stroke="black" stroke-width="4.82" stroke-miterlimit="10"/>
<path d="M174.792 255.352C195.25 267.947 251.791 293.68 253.797 194.703C253.797 194.703 251.364 168.711 257.708 165.32C264.052 161.929 274.284 151.191 261.107 125.194L269.704 115.253C270.866 113.868 271.505 112.004 271.481 110.073C271.457 108.141 270.772 106.3 269.576 104.954C268.381 103.608 266.773 102.867 265.107 102.895C263.44 102.923 261.851 103.716 260.69 105.102L243.603 126.093C243.603 126.093 241.127 120.711 236.739 123.515C232.35 126.319 216.252 138.22 223.562 163.07L204.548 226.368" stroke="black" stroke-width="4.82" stroke-miterlimit="10"/>
<path d="M243.58 126.08C243.58 126.08 248.136 134.116 238.438 142.33" stroke="black" stroke-width="4.82" stroke-miterlimit="10"/>
<path d="M263.913 131.438C263.913 131.438 266.75 141.766 255.302 148.43C251.252 150.787 246.807 145.825 248.721 141.061C248.753 140.991 248.781 140.916 248.814 140.841" stroke="black" stroke-width="4.82" stroke-miterlimit="10"/>
<path d="M267.377 144.193C267.377 144.193 264.874 154.28 258.024 154.764C251.963 155.189 252.98 148.025 252.98 148.025" stroke="black" stroke-width="4.82" stroke-miterlimit="10"/>
<path d="M150.181 137.875C149.717 138.015 149.424 137.569 148.993 137.655C142.783 136.341 138.167 130.658 137.646 127.923C137.823 129.414 140.182 129.263 139.783 130.787C139.708 131.077 139.56 130.964 139.439 131.244C139.244 131.782 139.249 131.045 138.975 131.529C137.451 128.919 136.569 127.622 136.3 126.185C136.482 127.727 136.375 129.297 135.984 130.787C135.912 131.078 135.817 131.361 135.7 131.632C134.772 134.172 132.835 136.32 129.598 136.853C128.786 136.972 127.967 137.002 127.15 136.944C124.828 136.788 122.822 136.632 121.112 136.546C115.4 136.25 113.352 136.75 113.993 141.024C114.346 142.957 114.847 144.85 115.488 146.681C116.621 150.136 117.411 156.122 116.25 162.64V162.677C114.903 170.267 110.639 176.134 101.504 181.645C99.8854 182.613 98.2166 183.463 96.5066 184.191C80.6554 191.005 42.7388 208.267 27.0223 271.564C25.3504 278.308 24.101 284.444 23.2186 290.047L22.7867 289.756C12.0536 282.302 5.05451 265.578 7.18163 251.191C8.24054 244.049 12.2533 239.065 17.3992 235.313C21.0125 232.719 24.8767 230.593 28.1137 227.39C38.8422 216.771 30.264 200.257 36.2042 187.56C42.9013 173.275 53.3883 164.47 67.0799 163.743C70.526 163.915 74.4041 164.384 78.166 164.174C83.6278 164.4 89.2103 163.883 93.2091 159.733C96.358 156.504 97.0128 151.24 98.2064 146.848C99.5505 141.895 100.671 136.865 101.564 131.777C102.381 126.953 103.905 122.328 106.069 118.1C108.406 113.519 111.701 109.695 115.651 106.98C119.096 104.727 122.937 103.407 126.885 103.121C130.481 103.367 133.979 104.575 137.103 106.652C138.17 107.383 139.179 108.222 140.117 109.16C147.033 115.996 150.344 127.568 150.181 137.875Z" fill="#3FBDF1"/>
<path d="M255.107 154.161C255.107 154.161 252.892 157.348 254.104 160.373C255.316 163.398 258.326 164.103 261.252 162.779" stroke="black" stroke-width="4.82" stroke-miterlimit="10"/>
<path d="M261.098 125.193L254.977 132.282" stroke="black" stroke-width="4.82" stroke-miterlimit="10"/>
<path d="M98.0391 248.295L103.022 198.508C103.224 196.493 104.058 194.635 105.364 193.286C106.671 191.937 108.36 191.192 110.11 191.193H155.875C156.877 191.192 157.867 191.436 158.782 191.908C159.696 192.38 160.515 193.07 161.184 193.934C161.854 194.797 162.359 195.814 162.667 196.918C162.975 198.022 163.079 199.189 162.972 200.343L156.303 272.085C156.114 274.113 155.285 275.99 153.974 277.352C152.665 278.716 150.966 279.47 149.206 279.47H132.83" stroke="black" stroke-width="4.82" stroke-miterlimit="10"/>
<path d="M152.132 203.873C153.163 203.873 153.999 202.905 153.999 201.71C153.999 200.515 153.163 199.546 152.132 199.546C151.101 199.546 150.265 200.515 150.265 201.71C150.265 202.905 151.101 203.873 152.132 203.873Z" fill="black"/>
<path d="M121.312 259.846C126.142 261.106 127.108 261.127 131.794 261.935C134.748 262.446 141.501 262.871 141.622 257.559C141.733 252.892 137.214 250.152 134.024 248.662C130.341 247.038 126.488 245.994 122.566 245.556C120.95 245.341 119.326 245.193 117.694 245.114C106.385 244.576 93.3389 247.746 85.5503 258C67.5069 281.726 43.5142 296.979 43.5142 296.979" stroke="black" stroke-width="4.82" stroke-miterlimit="10"/>
<path d="M134.247 262.197C136.569 263.338 140.503 265.77 138.891 270.432C138.157 272.585 136.824 273.349 134.995 273.661C131.042 274.323 126.802 273.349 122.919 272.407C121.484 272.057 118.939 271.417 117.522 270.964" stroke="black" stroke-width="4.82" stroke-miterlimit="10"/>
<path d="M130.118 273.769C130.118 273.769 134.339 273.71 133.322 278.258C131.646 285.793 118.618 282.381 112.525 280.798" stroke="black" stroke-width="4.82" stroke-miterlimit="10"/>
<path d="M130.378 179.894C150.228 180.901 180.477 187.645 207.906 215.144" stroke="black" stroke-width="4.82" stroke-miterlimit="10"/>
<path d="M280.595 344.488L44.564 344.897" stroke="black" stroke-width="4.82" stroke-miterlimit="10"/>
<path d="M174.792 245.059C174.792 245.059 179.436 295.153 174.792 344.488" stroke="black" stroke-width="4.82" stroke-miterlimit="10"/>
<path opacity="0.54" d="M379.757 222.179L420.576 100.962C421.082 98.6161 421.121 96.1682 420.688 93.8031C420.255 91.4381 419.364 89.2184 418.08 87.3125C416.796 85.4071 415.155 83.865 413.28 82.8047C411.405 81.7438 409.347 81.1927 407.261 81.1921H245.103C241.462 81.1916 237.927 82.6115 235.067 85.2236C232.208 87.8351 230.19 91.4871 229.34 95.5901L184.643 216.78C184.157 219.119 184.136 221.555 184.58 223.905C185.025 226.255 185.923 228.458 187.208 230.347C188.493 232.237 190.131 233.764 191.998 234.814C193.866 235.864 195.915 236.41 197.99 236.41H364.026C367.643 236.41 371.155 235.01 374.005 232.431C376.855 229.853 378.88 226.244 379.757 222.179Z" fill="white"/>
<path d="M379.757 222.179L420.576 100.962C421.082 98.6161 421.121 96.1682 420.688 93.8031C420.255 91.4381 419.364 89.2184 418.08 87.3125C416.796 85.4071 415.155 83.865 413.28 82.8047C411.405 81.7438 409.347 81.1927 407.261 81.1921H245.103C241.462 81.1916 237.927 82.6115 235.067 85.2236C232.208 87.8351 230.19 91.4871 229.34 95.5901L184.643 216.78C184.157 219.119 184.136 221.555 184.58 223.905C185.025 226.255 185.923 228.458 187.208 230.347C188.493 232.237 190.131 233.764 191.998 234.814C193.866 235.864 195.915 236.41 197.99 236.41H364.026C367.643 236.41 371.155 235.01 374.005 232.431C376.855 229.853 378.88 226.244 379.757 222.179Z" fill="#3FBDF1"/>
<path d="M379.757 222.179L420.576 100.962C421.082 98.6161 421.121 96.1682 420.688 93.8031C420.255 91.4381 419.364 89.2184 418.08 87.3125C416.796 85.4071 415.155 83.865 413.28 82.8047C411.405 81.7438 409.347 81.1927 407.261 81.1921H245.103C241.462 81.1916 237.927 82.6115 235.067 85.2236C232.208 87.8351 230.19 91.4871 229.34 95.5901L184.643 216.78C184.157 219.119 184.136 221.555 184.58 223.905C185.025 226.255 185.923 228.458 187.208 230.347C188.493 232.237 190.131 233.764 191.998 234.814C193.866 235.864 195.915 236.41 197.99 236.41H364.026C367.643 236.41 371.155 235.01 374.005 232.431C376.855 229.853 378.88 226.244 379.757 222.179Z" stroke="black" stroke-width="4.82" stroke-linecap="square" stroke-linejoin="round"/>
<path d="M373.784 217.271L411.446 105.441C411.912 103.278 411.947 101.02 411.548 98.8389C411.149 96.6574 410.326 94.6104 409.143 92.8526C407.959 91.0952 406.445 89.6726 404.717 88.6941C402.988 87.7156 401.09 87.2064 399.166 87.2053H249.557C246.198 87.2042 242.936 88.5143 240.298 90.924C237.66 93.3343 235.799 96.7031 235.015 100.489L193.778 212.293C193.331 214.45 193.311 216.698 193.722 218.866C194.132 221.033 194.961 223.065 196.147 224.808C197.332 226.551 198.844 227.96 200.567 228.928C202.29 229.896 204.18 230.399 206.095 230.399H359.275C362.61 230.397 365.849 229.105 368.478 226.726C371.106 224.348 372.974 221.02 373.784 217.271Z" fill="#3FBDF1"/>
<path d="M260.351 107.765C262.334 104.315 265.58 102.781 267.6 104.337C269.621 105.892 269.649 109.956 267.665 113.406C267.358 113.936 267.01 114.433 266.625 114.891L281.325 150.857C283.647 149.043 286.248 148.596 288.096 150.023C289.29 150.943 289.954 152.509 290.163 154.328L300.204 150.399L308.986 146.998C309.915 146.626 310.895 146.271 311.852 145.921C312.213 144.671 312.714 143.482 313.343 142.385C316.129 137.541 320.686 135.388 323.519 137.541C326.352 139.694 326.389 145.329 323.681 150.146L340.401 176.644C344.047 173.178 348.343 172.107 351.32 174.399C355.37 177.521 355.43 185.67 351.454 192.597C351.297 192.872 351.115 193.098 350.948 193.362L362.095 211.011C362.127 211.064 362.169 211.129 362.197 211.183C362.479 211.675 362.674 212.228 362.771 212.808C362.869 213.387 362.867 213.984 362.766 214.564C362.665 215.143 362.466 215.693 362.181 216.184C361.896 216.674 361.53 217.094 361.105 217.421C360.68 217.747 360.204 217.974 359.703 218.087C359.203 218.2 358.688 218.198 358.188 218.08C357.688 217.963 357.213 217.733 356.79 217.402C356.367 217.072 356.005 216.649 355.723 216.156L345.825 198.852C342.695 200.956 339.37 201.36 336.931 199.476C333.058 196.494 332.872 188.937 336.323 182.252L320.295 154.226C317.931 156.088 315.321 156.562 313.45 155.125C312.404 154.27 311.692 152.973 311.466 151.513C311.067 151.637 310.672 151.772 310.273 151.901L301.342 154.727L289.912 158.295C289.562 159.883 288.984 161.391 288.203 162.757C285.416 167.601 280.865 169.754 278.027 167.575C275.189 165.395 275.148 159.684 277.93 154.834C278.344 154.131 278.811 153.47 279.323 152.859L265.329 116.189C263.643 117.518 261.781 117.863 260.448 116.835C258.4 115.284 258.367 111.221 260.351 107.765Z" fill="white"/>
<path d="M366.799 109.751H388.484C389.476 109.751 390.447 109.415 391.277 108.787C392.107 108.157 392.762 107.262 393.161 106.209C393.288 105.886 393.356 105.536 393.36 105.181C393.356 104.495 393.117 103.839 392.697 103.355C392.277 102.871 391.709 102.599 391.117 102.597H368.049C369.149 104.723 368.601 107.662 366.799 109.751Z" fill="#D7E8F0"/>
<path d="M352.778 107.172C352.779 107.857 353.015 108.513 353.433 108.996C353.85 109.479 354.417 109.751 355.007 109.751H366.799C368.601 107.662 369.149 104.723 368.067 102.597H357.654C356.663 102.597 355.694 102.931 354.863 103.557C354.033 104.184 353.377 105.078 352.978 106.128C352.851 106.458 352.783 106.812 352.778 107.172Z" fill="#3FBDF1"/>
<path d="M358.203 109.75C358.264 109.889 358.335 110.02 358.416 110.143C359.963 112.592 363.316 112.835 365.926 110.617C366.235 110.353 366.527 110.064 366.799 109.75C368.601 107.662 369.149 104.723 368.067 102.597C368.006 102.461 367.934 102.331 367.854 102.21C366.321 99.7446 362.968 99.5185 360.358 101.72C360.045 101.988 359.748 102.281 359.471 102.597C357.682 104.691 357.134 107.614 358.203 109.75Z" fill="white"/>
<path d="M347.325 122.945C347.33 123.63 347.569 124.286 347.989 124.769C348.409 125.252 348.977 125.523 349.568 125.523H372.326C371.225 123.37 371.773 120.463 373.58 118.375H352.216C351.224 118.375 350.253 118.71 349.423 119.339C348.592 119.968 347.937 120.864 347.539 121.917C347.409 122.239 347.336 122.589 347.325 122.945Z" fill="#3FBDF1"/>
<path d="M372.321 125.523H383.003C383.994 125.524 384.963 125.191 385.793 124.565C386.624 123.939 387.279 123.047 387.68 121.997C387.808 121.669 387.876 121.313 387.88 120.953C387.88 120.614 387.823 120.279 387.712 119.965C387.6 119.652 387.436 119.368 387.229 119.129C387.023 118.889 386.777 118.699 386.507 118.57C386.237 118.44 385.947 118.374 385.655 118.375H373.575C371.764 120.463 371.22 123.386 372.321 125.523Z" fill="#D7E8F0"/>
<path d="M372.321 125.522C372.369 125.663 372.435 125.796 372.516 125.915C374.053 128.38 377.407 128.606 380.012 126.405C380.328 126.139 380.625 125.844 380.899 125.522C382.687 123.434 383.221 120.511 382.167 118.374C382.108 118.236 382.038 118.105 381.958 117.981C380.407 115.532 377.054 115.29 374.448 117.508C374.138 117.769 373.845 118.058 373.575 118.374C371.764 120.463 371.22 123.385 372.321 125.522Z" fill="white"/>
<path d="M364.742 141.185H378.364C379.355 141.186 380.324 140.852 381.155 140.225C381.985 139.599 382.641 138.705 383.041 137.655C383.169 137.332 383.237 136.981 383.24 136.627C383.238 135.938 383.001 135.279 382.58 134.793C382.16 134.307 381.591 134.033 380.997 134.032H366.01C367.078 136.169 366.53 139.092 364.742 141.185Z" fill="#3FBDF1"/>
<path d="M342.663 138.618C342.665 139.301 342.901 139.955 343.319 140.436C343.737 140.917 344.303 141.187 344.892 141.185H364.742C366.53 139.092 367.064 136.169 366.01 134.032H347.539C346.547 134.032 345.576 134.368 344.746 134.996C343.915 135.625 343.261 136.521 342.862 137.574C342.735 137.902 342.667 138.257 342.663 138.618Z" fill="#D7E8F0"/>
<path d="M356.145 141.185C356.206 141.321 356.278 141.45 356.359 141.572C357.891 144.037 361.245 144.263 363.855 142.062C364.168 141.794 364.464 141.501 364.742 141.185C366.53 139.091 367.064 136.168 366.01 134.031C365.948 133.893 365.877 133.762 365.796 133.638C364.25 131.189 360.896 130.98 358.286 133.165C357.977 133.428 357.686 133.718 357.413 134.031C355.611 136.12 355.044 139.059 356.145 141.185Z" fill="white"/>
<path d="M276.675 215.057H290.297C291.288 215.058 292.258 214.724 293.088 214.097C293.919 213.47 294.574 212.577 294.974 211.526C295.13 211.133 295.197 210.701 295.169 210.27C295.141 209.839 295.02 209.423 294.815 209.061C294.611 208.699 294.331 208.403 294.002 208.201C293.672 207.998 293.304 207.896 292.931 207.904H277.948C279.011 210.041 278.463 212.963 276.675 215.057Z" fill="#3FBDF1"/>
<path d="M222.596 212.492C222.597 212.829 222.655 213.164 222.767 213.475C222.879 213.788 223.043 214.071 223.25 214.309C223.456 214.548 223.701 214.737 223.971 214.865C224.24 214.994 224.529 215.06 224.821 215.059H276.675C278.463 212.965 278.997 210.043 277.943 207.906H227.473C226.481 207.906 225.51 208.241 224.68 208.87C223.849 209.499 223.194 210.394 222.796 211.447C222.668 211.776 222.6 212.131 222.596 212.492Z" fill="#D7E8F0"/>
<path d="M268.079 215.058C268.14 215.194 268.212 215.324 268.292 215.446C269.825 217.916 273.178 218.137 275.788 215.935C276.101 215.667 276.398 215.374 276.675 215.058C278.464 212.964 278.998 210.042 277.943 207.905C277.883 207.767 277.811 207.635 277.73 207.512C276.179 205.063 272.825 204.853 270.22 207.038C269.911 207.302 269.619 207.592 269.347 207.905C267.545 209.993 266.997 212.932 268.079 215.058Z" fill="white"/>
<path d="M23.994 292.586C22.2644 291.796 20.5919 290.847 18.992 289.75C8.24961 282.295 1.25056 265.577 3.38232 251.185C4.44588 244.042 8.45861 239.064 13.6231 235.307C17.2318 232.712 21.1145 230.592 24.3377 227.389C35.0663 216.77 26.4835 200.251 32.4236 187.559C39.6456 172.166 51.2565 163.139 66.555 163.726C73.8978 164.006 83.4327 165.96 89.4285 159.732C92.5774 156.503 93.2369 151.239 94.4305 146.847C95.776 141.894 96.8981 136.863 97.793 131.776C98.597 126.953 100.112 122.327 102.27 118.099C104.606 113.513 107.901 109.684 111.852 106.963C119.283 101.995 129.644 101.538 137.112 106.646C138.175 107.378 139.182 108.216 140.122 109.148C147.033 116.016 150.339 127.583 150.181 137.896" stroke="black" stroke-width="4.82" stroke-miterlimit="10"/>
<path d="M136.146 125.273C136.532 128.309 138.125 131.107 140.953 131.947C144.148 132.889 145.844 136.495 146.745 140.118C148.025 145.432 147.697 151.094 145.816 156.163C144.069 160.931 140.958 166.389 135.696 167.245C126.068 168.86 121.275 164.134 121.275 164.134" stroke="black" stroke-width="4.82" stroke-miterlimit="10"/>
<path d="M128.126 141.491C129.039 141.491 129.779 140.633 129.779 139.575C129.779 138.517 129.039 137.659 128.126 137.659C127.212 137.659 126.472 138.517 126.472 139.575C126.472 140.633 127.212 141.491 128.126 141.491Z" fill="black"/>
<path d="M142.667 140.221C143.58 140.221 144.32 139.364 144.32 138.305C144.32 137.247 143.58 136.389 142.667 136.389C141.754 136.389 141.014 137.247 141.014 138.305C141.014 139.364 141.754 140.221 142.667 140.221Z" fill="black"/>
<path d="M124.289 282.935C126.695 284.646 124.753 287.467 123.007 288.419C120.007 290.034 116.129 290.319 112.859 290.771C87.998 294.162 79.6985 333.712 64.0934 341.065C48.4884 348.417 6.61006 353.789 27.0361 271.556C42.7619 208.27 80.6785 191.008 96.5297 184.194C98.236 183.468 99.9015 182.619 101.518 181.654C110.653 176.153 114.931 170.265 116.273 162.67C116.273 162.67 116.273 162.67 116.273 162.638C117.434 156.12 116.654 150.134 115.516 146.673C114.863 144.846 114.357 142.952 114.002 141.017C113.157 135.51 116.826 136.285 127.127 136.942C131.855 137.265 134.53 134.789 135.682 131.635C135.795 131.362 135.886 131.077 135.956 130.785C136.44 128.999 136.498 127.094 136.123 125.273" stroke="black" stroke-width="4.82" stroke-miterlimit="10"/>
<path d="M135.25 140.039C135.25 140.039 136.987 147.397 136.81 148.484C136.634 149.571 134.409 148.732 134.409 148.732" stroke="black" stroke-width="4.82" stroke-miterlimit="10"/>
<path d="M134.052 155.47C130.722 157.547 126.871 156.239 125.367 152.778" stroke="black" stroke-width="4.82" stroke-miterlimit="10"/>
<path d="M130.781 147.404C133.882 144.011 134.08 138.416 131.222 134.907C128.365 131.399 123.534 131.306 120.432 134.7C117.33 138.093 117.132 143.688 119.99 147.197C122.848 150.705 127.679 150.798 130.781 147.404Z" stroke="black" stroke-width="4.82" stroke-miterlimit="10"/>
<path d="M150.069 145.365C153.171 141.971 153.369 136.376 150.511 132.868C147.653 129.36 142.822 129.267 139.72 132.66C136.618 136.054 136.42 141.649 139.278 145.157C142.136 148.665 146.967 148.759 150.069 145.365Z" stroke="black" stroke-width="4.82" stroke-miterlimit="10"/>
<path d="M145.054 132.874C146.359 132.864 147.618 133.434 148.573 134.465C149.527 135.497 150.104 136.913 150.186 138.423C150.269 140.068 149.799 141.684 148.874 142.935C147.948 144.185 146.641 144.97 145.226 145.124C145.063 145.124 144.896 145.124 144.734 145.124C143.436 145.135 142.183 144.573 141.23 143.553C140.277 142.532 139.695 141.129 139.602 139.629C139.512 137.98 139.98 136.356 140.906 135.101C141.831 133.844 143.143 133.056 144.562 132.901C144.724 132.901 144.891 132.901 145.054 132.901V132.874ZM145.054 131.604C144.859 131.604 144.659 131.604 144.46 131.636C142.755 131.824 141.18 132.77 140.066 134.276C138.951 135.781 138.383 137.729 138.482 139.71C138.586 141.546 139.291 143.268 140.452 144.523C141.614 145.778 143.145 146.473 144.734 146.465C144.929 146.465 145.128 146.465 145.328 146.432C147.033 146.248 148.609 145.302 149.723 143.795C150.838 142.289 151.403 140.339 151.301 138.359C151.208 136.514 150.509 134.78 149.347 133.515C148.185 132.25 146.648 131.548 145.054 131.555V131.604Z" fill="white"/>
<path d="M133.225 140.253L137.274 139.822" stroke="black" stroke-width="4.82" stroke-miterlimit="10"/>
<path d="M125.771 134.742C127.115 134.727 128.414 135.311 129.398 136.374C130.381 137.436 130.975 138.897 131.056 140.453C131.143 142.147 130.659 143.814 129.706 145.102C128.753 146.391 127.405 147.2 125.947 147.358C125.78 147.358 125.608 147.358 125.441 147.358C124.095 147.372 122.796 146.787 121.812 145.723C120.828 144.66 120.233 143.199 120.151 141.642C120.065 139.949 120.55 138.284 121.503 136.996C122.456 135.709 123.803 134.901 125.26 134.742C125.429 134.722 125.6 134.714 125.771 134.715V134.742ZM125.771 133.418C125.566 133.418 125.362 133.429 125.158 133.45C123.401 133.639 121.778 134.617 120.635 136.173C119.491 137.73 118.917 139.742 119.036 141.782C119.143 143.664 119.864 145.428 121.055 146.714C122.245 148.001 123.814 148.712 125.441 148.704C125.641 148.704 125.845 148.704 126.049 148.672C127.798 148.481 129.414 147.511 130.556 145.965C131.698 144.419 132.277 142.42 132.171 140.388C132.065 138.507 131.344 136.743 130.155 135.456C128.966 134.17 127.398 133.458 125.771 133.466V133.418Z" fill="white"/>
<path d="M149.336 144.463C151.995 141.554 152.163 136.754 149.71 133.743C147.258 130.731 143.113 130.65 140.453 133.559C137.793 136.469 137.626 141.269 140.078 144.28C142.531 147.291 146.676 147.373 149.336 144.463Z" fill="#3FBDF1"/>
<path d="M131.441 146.819C134.124 143.88 134.293 139.036 131.817 136C129.34 132.964 125.158 132.886 122.475 135.825C119.791 138.764 119.624 143.608 122.1 146.644C124.576 149.68 128.758 149.758 131.441 146.819Z" fill="#3FBDF1"/>
<path d="M109.232 191.257C107.188 188.786 105.414 185.153 104.249 179.894" stroke="black" stroke-width="4.82" stroke-miterlimit="10"/>
<path d="M128.125 191.193L130.378 179.895L132.826 167.72" stroke="black" stroke-width="4.82" stroke-miterlimit="10"/>
<path d="M137.333 236.177C138.199 231.254 135.856 226.545 132.101 225.658C128.346 224.771 124.601 228.042 123.735 232.965C122.869 237.887 125.212 242.597 128.966 243.484C132.721 244.371 136.467 241.099 137.333 236.177Z" fill="#D7E8F0"/>
<path d="M280.999 316.269L277.191 340.931C277.084 341.623 276.771 342.25 276.305 342.702C275.84 343.154 275.253 343.401 274.646 343.402H254.726C254.113 343.402 253.52 343.15 253.051 342.691C252.584 342.232 252.272 341.594 252.172 340.894L248.688 316.269H280.999Z" stroke="#CCDDE2" stroke-width="4.82" stroke-miterlimit="10"/>
<path d="M284.622 313.512C284.568 314.262 284.273 314.962 283.796 315.472C283.319 315.983 282.693 316.266 282.044 316.268H247.676C247.035 316.268 246.417 315.993 245.941 315.496C245.465 314.999 245.165 314.315 245.098 313.577C245.064 313.161 245.105 312.741 245.219 312.344C245.333 311.947 245.517 311.583 245.76 311.274C246.002 310.965 246.298 310.718 246.628 310.549C246.958 310.38 247.315 310.293 247.676 310.293H282.044C282.399 310.294 282.751 310.379 283.077 310.544C283.403 310.709 283.696 310.95 283.938 311.252C284.18 311.554 284.365 311.911 284.483 312.299C284.601 312.689 284.648 313.101 284.622 313.512Z" stroke="#CCDDE2" stroke-width="4.82" stroke-miterlimit="10"/>
<path d="M265.942 310.252C265.942 308.987 268.729 293.233 266.407 279.265C265.144 271.601 262.357 264.48 256.747 260.578" stroke="#CCDDE2" stroke-width="4.82" stroke-miterlimit="10"/>
<path d="M266.416 279.287C266.416 279.287 267.052 268.673 274.966 267.941" stroke="#CCDDE2" stroke-width="4.82" stroke-miterlimit="10"/>
<path d="M267.266 295.483C269.518 293.655 272.23 292.746 274.976 292.899" stroke="#CCDDE2" stroke-width="4.82" stroke-miterlimit="10"/>
<path d="M267.266 287.941C267.266 287.941 261.516 280.051 252.33 286.294" stroke="#CCDDE2" stroke-width="4.82" stroke-miterlimit="10"/>
<path d="M263.211 284.765C263.211 284.765 250.263 271.061 247.727 289.609C247.727 289.609 251.373 292.36 256.756 289.609C262.139 286.859 263.211 284.765 263.211 284.765Z" stroke="#CCDDE2" stroke-width="4.82" stroke-miterlimit="10"/>
<path d="M269.263 271.17C269.263 271.17 268.798 265.002 274.966 262.984C281.134 260.965 284.631 269.41 284.631 269.41C284.631 269.41 279.871 275.508 269.263 271.17Z" stroke="#CCDDE2" stroke-width="4.82" stroke-miterlimit="10"/>
<path d="M270.694 292.894C270.694 292.894 270.48 286.655 277.66 287.942C284.84 289.228 286.02 296.328 286.02 296.328C286.02 296.328 274.26 301.322 270.694 293.55" stroke="#CCDDE2" stroke-width="4.82" stroke-miterlimit="10"/>
<path d="M262.041 266.369C262.041 266.811 256.645 265.831 256.301 265.691C253.686 264.787 251.828 262.688 250.607 259.91C250.231 259.049 248.052 254.221 248.67 253.381C248.689 253.381 261.516 248.591 262.041 266.369Z" stroke="#CCDDE2" stroke-width="4.82" stroke-miterlimit="10"/>
<path d="M388.651 268.042C384.601 282.039 377.896 294.807 369.028 305.406C352.258 325.741 327.053 340.306 295.183 343.713V268.042H388.651Z" stroke="#CCDDE2" stroke-width="4.82" stroke-miterlimit="10"/>
<path d="M369.028 305.407C352.258 325.742 327.053 340.307 295.183 343.714V305.407H369.028Z" stroke="#CCDDE2" stroke-width="4.82" stroke-miterlimit="10"/>
<path d="M359.327 287.47C359.327 284.451 357.215 282.004 354.61 282.004C352.006 282.004 349.894 284.451 349.894 287.47C349.894 290.489 352.006 292.936 354.61 292.936C357.215 292.936 359.327 290.489 359.327 287.47Z" stroke="#CCDDE2" stroke-width="4.82" stroke-miterlimit="10"/>
</svg>
