<svg width="377" height="318" viewBox="0 0 377 318" fill="none" xmlns="http://www.w3.org/2000/svg">
<path d="M291.527 70.2842C289.826 66.2452 287.932 62.2342 285.858 58.3352C281.727 50.5757 280.779 43.2222 274.975 36.7332" stroke="#CCDDE2" stroke-width="7.24" stroke-miterlimit="10"/>
<path d="M261.523 29.2957C256.529 24.9487 251.858 20.2762 243.371 16.7866C225.437 9.4366 202.504 8.6911 173.232 19.0861" stroke="#CCDDE2" stroke-width="7.24" stroke-miterlimit="10"/>
<path d="M50.1679 314.168C21.8037 279.857 12.6298 241.067 17.3702 201.395" stroke="#CCDDE2" stroke-width="7.24" stroke-miterlimit="10"/>
<path d="M307.486 145.262V145.685C307.208 153.385 315.523 185.305 339.106 195.445C362.689 205.584 379.503 250.09 326.333 267.552C273.163 285.013 276.059 314.168 276.059 314.168" stroke="#CCDDE2" stroke-width="7.24" stroke-miterlimit="10"/>
<path d="M173.228 52.0421V14.3331C173.221 11.7425 172.014 9.2598 169.874 7.42793C167.733 5.59607 164.832 4.56409 161.805 4.55762H15.8733C12.846 4.56409 9.94478 5.59607 7.80412 7.42793C5.66345 9.2598 4.45752 11.7425 4.44995 14.3331V191.643C4.45535 194.232 5.66141 196.714 7.80326 198.543C9.94507 200.372 12.8476 201.399 15.8733 201.398H161.805C163.22 201.405 164.624 201.174 165.935 200.719" stroke="black" stroke-width="7.24" stroke-linecap="round" stroke-linejoin="round"/>
<path d="M157.899 10.5322H19.7793C14.1434 10.5322 9.57471 14.4419 9.57471 19.2647V186.708C9.57471 191.531 14.1434 195.441 19.7793 195.441H157.899C163.535 195.441 168.103 191.531 168.103 186.708V19.2647C168.103 14.4419 163.535 10.5322 157.899 10.5322Z" fill="#3FBDF1"/>
<path d="M155.4 24.8398H24.0125C21.1935 24.8398 18.9082 26.7956 18.9082 29.2078V55.0938C18.9082 57.5064 21.1935 59.4618 24.0125 59.4618H155.4C158.219 59.4618 160.504 57.5064 160.504 55.0938V29.2078C160.504 26.7956 158.219 24.8398 155.4 24.8398Z" fill="#3FBDF1"/>
<path d="M88.8388 39.4219C91.1497 39.4219 93.0229 37.8189 93.0229 35.8414C93.0229 33.8639 91.1497 32.2609 88.8388 32.2609C86.528 32.2609 84.6548 33.8639 84.6548 35.8414C84.6548 37.8189 86.528 39.4219 88.8388 39.4219Z" fill="#D7E8F0"/>
<path d="M77.1455 52.0428C77.1455 49.3888 78.3774 46.8436 80.5705 44.9672C82.7631 43.0905 85.7374 42.0363 88.8388 42.0363C91.9403 42.0363 94.9141 43.0905 97.1072 44.9672C99.3002 46.8436 100.532 49.3888 100.532 52.0428H77.1455Z" fill="#D7E8F0"/>
<path d="M89.6897 96.5583C85.2292 96.5562 80.868 97.6863 77.158 99.8059C73.4479 101.925 70.5563 104.939 68.8479 108.465C67.1399 111.991 66.6925 115.872 67.562 119.616C68.4316 123.36 70.5792 126.799 73.7334 129.498C76.8876 132.197 80.9065 134.035 85.2815 134.779C89.6566 135.523 94.1912 135.14 98.3119 133.679C102.433 132.217 105.954 129.742 108.431 126.567C110.907 123.392 112.228 119.661 112.226 115.843C112.222 110.729 109.847 105.826 105.622 102.21C101.396 98.5939 95.6656 96.5611 89.6897 96.5583ZM89.6897 130.477C88.8169 130.477 87.9801 130.18 87.3629 129.652C86.7462 129.124 86.3993 128.408 86.3993 127.661C86.3993 126.914 86.7462 126.198 87.3629 125.67C87.9801 125.142 88.8169 124.845 89.6897 124.845C90.5626 124.845 91.3994 125.142 92.0165 125.67C92.6333 126.198 92.9801 126.914 92.9801 127.661C92.9801 128.408 92.6333 129.124 92.0165 129.652C91.3994 130.18 90.5626 130.477 89.6897 130.477ZM93.8656 108.777C93.1581 112.956 92.5609 117.362 91.1253 121.426C90.7736 122.392 88.6304 122.392 88.2623 121.426C87.2333 118.367 86.4439 115.254 85.8983 112.105C85.4566 109.816 83.8901 106.113 85.3912 103.88C86.6959 101.896 90.4055 101.651 92.5487 102.69C95.2112 103.999 94.1724 106.712 93.8656 108.791V108.777Z" fill="#D7E8F0"/>
<path d="M33.0676 74.9185H143.166" stroke="white" stroke-width="7.24" stroke-miterlimit="10"/>
<path d="M33.0676 84.1893H143.166" stroke="white" stroke-width="7.24" stroke-miterlimit="10"/>
<path d="M33.0676 143.911H143.166" stroke="white" stroke-width="7.24" stroke-miterlimit="10"/>
<path d="M58.6423 152.682H117.592" stroke="white" stroke-width="7.24" stroke-miterlimit="10"/>
<path d="M44.7651 210.12C44.7651 210.12 64.3562 143.501 125.375 127.229L150.177 122.165C150.177 122.165 154.099 107.174 152.655 105.599C151.211 104.024 148.246 100.797 142.815 101.497C137.383 102.197 123.342 102.421 119.747 87.7317C116.152 73.0422 129.436 38.1261 163.96 32.9041C198.484 27.6821 199.289 49.3751 199.289 49.3751L173.931 99.6597L177.866 140.225L178.361 200.652L44.7651 210.12Z" fill="white"/>
<path d="M255.625 158.657C255.216 158.759 249.997 160.057 247.944 163.151C247.553 162.443 246.935 161.844 246.161 161.425C245.388 161.006 244.491 160.784 243.576 160.785H182.287C181.197 160.783 180.138 161.099 179.284 161.679C178.43 162.26 177.832 163.071 177.588 163.98L165.518 208.266C164.7 208.13 163.882 208.046 163.032 207.976L134.549 201.893C133.327 201.63 132.035 201.767 130.925 202.277C129.814 202.786 128.966 203.631 128.545 204.647C128.355 205.103 128.261 205.584 128.267 206.068C128.267 207.167 128.754 208.225 129.629 209.03C130.505 209.834 131.705 210.324 132.986 210.401L146.455 211.143C133.481 216.368 117.698 226.322 104.524 235.468C91.706 218.293 103.735 201.123 112.782 191.876C111.616 181.684 105.71 158.02 76.2417 158.664C86.3931 147.523 99.0516 137.976 114.737 131.584C168.463 182.545 229.928 140.88 231.232 139.984C240.424 145.115 248.649 151.414 255.625 158.664" fill="#2E2E2E"/>
<path d="M250.042 304.844V313.65H72.6138V301.176C79.5259 301.526 86.7979 300.126 93.4114 297.575C101.784 294.313 109.015 289.245 115.199 283.463C121.559 277.478 125.052 269.179 129.105 261.962C135.191 251.095 143.252 243.353 156.046 240.073L155.228 243.083C155.064 243.689 155.061 244.319 155.221 244.926C155.38 245.533 155.698 246.101 156.149 246.588C156.601 247.076 157.175 247.47 157.829 247.741C158.483 248.012 159.2 248.154 159.927 248.155H221.522C220.295 257.255 215.122 306.955 250.042 304.855" fill="#2E2E2E"/>
<path d="M221.551 73.2455C221.502 77.9541 220.785 82.6395 219.416 87.2C218.792 89.3623 217.452 91.3241 215.557 92.8508C213.662 94.3775 211.293 95.4037 208.733 95.8065C208.631 92.6285 207.052 89.839 204.643 88.1065C204.863 85.4161 204.832 82.7148 204.549 80.0285C204.39 78.254 204.14 76.5985 203.878 75.111C203.722 74.2644 203.497 73.4282 203.203 72.6085C202.381 71.8529 201.413 71.2239 200.34 70.75C196.549 68.923 188.745 66.9805 174.287 69.8365C171.926 70.2992 169.706 71.1802 167.768 72.423C167.725 72.4461 167.686 72.4741 167.653 72.507C166.348 73.536 164.688 74.838 162.97 75.5135C161.191 76.2135 159.334 76.2415 157.776 74.586C157.735 74.551 157.714 74.5195 157.678 74.4845C156.86 73.571 156.078 72.3845 154.635 72.15C151.592 71.66 150.111 74.25 149.727 76.427C149.391 78.4395 150.083 80.214 151.093 81.9045C151.939 83.279 153.044 84.5243 154.365 85.59C154.704 85.8707 155.014 86.1749 155.293 86.5C155.166 86.5193 155.042 86.5487 154.921 86.5875C154.641 86.668 154.368 86.7639 154.103 86.8745C150.422 88.292 147.8 91.8445 147.743 96.0025C147.743 96.132 141.571 96.055 140.79 96.0025C137.78 95.7645 134.815 95.0225 132.696 93.08C126.684 87.5675 126.712 79.388 129.183 72.99C131.522 66.9175 134.5 60.9885 138.401 55.525C146.855 43.702 159.972 34.98 176.578 34.196C180.56 34.0249 184.552 34.2244 188.484 34.791C190.344 35.042 192.184 35.3927 193.993 35.841C210.921 42.162 221.666 56.491 221.568 73.2455" fill="#2E2E2E"/>
<path d="M211.748 208.031C209.748 212.423 204.987 214.936 201.114 213.631C197.24 212.325 195.719 207.733 197.715 203.341C199.711 198.948 204.476 196.432 208.349 197.741C212.222 199.05 213.748 203.642 211.748 208.034" fill="#3FBDF1"/>
<path d="M222.038 247.259C222.038 247.259 211.175 312.061 254.627 304.879C297.842 297.729 314.198 147.281 189.109 125.644" stroke="black" stroke-width="7.24" stroke-miterlimit="10"/>
<path d="M120.303 184.872C120.303 184.872 85.2438 210.174 104.136 235.479" stroke="black" stroke-width="7.24" stroke-miterlimit="10"/>
<path d="M222.827 229.259C222.226 229.291 221.367 228.948 220.782 228.811C220.041 228.643 219.306 228.463 218.578 228.272C214.307 227.134 210.288 225.393 206.688 223.12C205.87 222.62 204.414 222.298 203.416 222.627C202.861 222.801 202.37 223.1 201.996 223.492C201.622 223.884 201.378 224.355 201.289 224.856C200.983 226.662 202.471 228.43 204.095 229.588C206.022 230.967 208.022 232.238 210.357 233.064C212.611 233.838 214.937 234.45 217.31 234.894C218.386 235.108 219.478 235.244 220.545 235.479" stroke="black" stroke-width="7.24" stroke-miterlimit="10"/>
<path d="M236.283 211.726C236.725 213.721 237.048 215.793 236.827 217.82C236.643 219.535 235.924 221.537 233.694 221.953C233.271 222.049 232.831 222.083 232.394 222.055C224.001 221.631 217.085 219.15 209.187 214.264C201.289 209.378 198.508 220.63 205.723 222.625" stroke="black" stroke-width="7.24" stroke-miterlimit="10"/>
<path d="M206.025 230.945C205.832 230.809 205.648 230.663 205.473 230.508C201.543 226.99 200.831 234.057 204.958 236.136L205.49 236.405C205.768 236.507 206.066 236.626 206.361 236.755C206.5 236.787 206.655 236.839 206.799 236.874M206.799 236.874C210.529 238.274 214.5 239.17 218.41 240.084C214.541 239.002 210.684 237.938 206.799 236.874ZM206.799 236.874C206.463 236.755 206.144 236.636 205.809 236.5C205.706 236.463 205.599 236.435 205.49 236.416C205.42 236.389 205.344 236.378 205.268 236.384C205.192 236.39 205.119 236.413 205.056 236.451C204.963 236.516 204.895 236.604 204.86 236.703C204.226 238.005 204.741 239.646 205.551 240.812C206.402 242.044 207.862 242.992 209.302 243.668C213.175 245.526 217.678 246.625 222.026 247.283C222.832 247.426 223.658 247.472 224.48 247.42" stroke="black" stroke-width="7.24" stroke-miterlimit="10"/>
<path d="M259.551 255.438C259.551 255.438 246.222 235.999 244.737 219.097C243.829 208.636 240.238 206.42 237.67 206.27" stroke="black" stroke-width="7.24" stroke-miterlimit="10"/>
<path d="M233.694 221.95L236.287 211.727L237.67 206.267L247.919 165.786C248.072 165.183 248.064 164.559 247.897 163.959C247.73 163.359 247.409 162.798 246.957 162.318C246.504 161.839 245.932 161.451 245.282 161.185C244.632 160.919 243.92 160.781 243.2 160.781H181.907C180.817 160.78 179.758 161.095 178.905 161.676C178.051 162.256 177.453 163.067 177.207 163.976L165.138 208.265L156.328 240.581L155.51 243.608C155.347 244.214 155.346 244.844 155.507 245.45C155.667 246.056 155.985 246.624 156.437 247.111C156.888 247.598 157.462 247.991 158.116 248.262C158.77 248.533 159.487 248.675 160.213 248.676H221.805" stroke="black" stroke-width="7.24" stroke-miterlimit="10"/>
<path d="M157.702 73.4212C157.702 73.4212 160.946 61.6507 179.261 60.0897C197.576 58.5287 202.165 70.2397 202.165 70.2397L201.588 71.4192C201.588 71.4192 177.51 63.1522 164.213 74.9507C164.213 74.9507 159.424 76.8092 157.702 73.4282" fill="#3FBDF1"/>
<path d="M162.643 207.975L134.156 201.885C133.477 201.741 132.77 201.719 132.08 201.822C131.39 201.924 130.733 202.148 130.15 202.48C129.567 202.811 129.071 203.243 128.693 203.747C128.316 204.252 128.065 204.818 127.956 205.409C127.849 206.001 127.885 206.606 128.065 207.185C128.244 207.764 128.563 208.305 128.999 208.773C129.436 209.24 129.982 209.626 130.602 209.904C131.223 210.181 131.904 210.346 132.602 210.386L146.07 211.146" stroke="black" stroke-width="7.24" stroke-miterlimit="10"/>
<path d="M230.864 139.967C230.864 139.967 168.643 183.101 114.352 131.584" stroke="black" stroke-width="7.24" stroke-miterlimit="10"/>
<path d="M112.401 191.868C111.236 181.676 105.334 157.995 75.8408 158.656" stroke="black" stroke-width="7.24" stroke-miterlimit="10"/>
<path d="M255.253 158.649C255.253 158.649 249.695 159.958 247.564 163.157" stroke="black" stroke-width="7.24" stroke-miterlimit="10"/>
<path d="M29.448 314.175H293.625" stroke="black" stroke-width="7.24" stroke-miterlimit="10"/>
<path d="M204.643 88.1202C207.134 89.9122 208.733 92.8382 208.733 96.1492C208.733 101.644 204.271 106.089 198.758 106.089C198.134 106.086 197.513 106.024 196.905 105.904C203.326 101.704 204.627 88.1202 204.627 88.1202" fill="#3FBDF1"/>
<path d="M168.32 110.301C171.415 111.619 174.803 112.36 178.257 112.474C181.712 112.588 185.156 112.073 188.361 110.963C206.431 104.505 205.739 85.4721 203.862 75.1261C203.712 74.2868 203.499 73.4566 203.224 72.6411V72.6236C201.15 66.7086 195.739 61.8891 188.61 60.5206C174.803 57.8501 162.177 64.5491 156.938 73.5686" stroke="black" stroke-width="7.24" stroke-miterlimit="10"/>
<path d="M203.396 72.8259C203.396 72.8259 203.339 72.7559 203.22 72.6404V72.6229C201.993 71.4399 194.889 65.7944 174.324 69.8509C171.965 70.3125 169.745 71.1938 167.809 72.4374C167.763 72.4598 167.722 72.4881 167.686 72.5214" stroke="black" stroke-width="7.24" stroke-miterlimit="10"/>
<path d="M148.581 101.498H138.41C131.068 101.498 125.248 95.7439 122.716 90.3434C119.158 82.7484 121.436 74.9749 124.639 67.5934C127.322 61.4159 130.733 55.4134 135.219 50.0409C145.264 38.0184 160.43 31.2074 177.862 32.4674C179.408 32.5794 180.947 32.7425 182.479 32.9574C205.886 36.2054 221.67 52.9529 221.551 73.2354C221.502 77.9471 220.785 82.6364 219.416 87.2004C218.787 89.3609 217.445 91.3209 215.55 92.8469C213.655 94.3729 211.287 95.4002 208.729 95.8069" stroke="black" stroke-width="7.24" stroke-miterlimit="10"/>
<path d="M155.301 86.5C155.021 86.1745 154.711 85.869 154.373 85.5865C153.052 84.5225 151.946 83.2783 151.101 81.9045C150.091 80.214 149.4 78.4395 149.735 76.427C150.111 74.264 151.592 71.66 154.643 72.15C156.087 72.388 156.856 73.571 157.686 74.4845C160.843 77.9845 165.191 74.467 167.858 72.353" stroke="black" stroke-width="7.24" stroke-miterlimit="10"/>
<path d="M204.643 88.1202C207.134 89.9122 208.733 92.8382 208.733 96.1492C208.733 101.644 204.271 106.089 198.758 106.089C198.134 106.086 197.513 106.024 196.905 105.904" stroke="black" stroke-width="7.24" stroke-miterlimit="10"/>
<path d="M183.297 94.8657C185.531 96.1502 190.925 97.2037 189.841 93.3957C188.541 88.8842 186.79 79.2452 197.51 78.5102C197.51 78.5102 202.23 78.6817 204.561 80.0537" stroke="black" stroke-width="7.24" stroke-miterlimit="10"/>
<path d="M187.334 102.408C187.334 102.408 181.935 104.858 179.26 99.975" stroke="black" stroke-width="7.24" stroke-miterlimit="10"/>
<path d="M176.385 85.1004C176.177 86.6509 176.884 87.9914 177.968 88.0999C179.052 88.2084 180.099 87.0499 180.312 85.4889C180.524 83.9279 179.809 82.6014 178.729 82.4929C177.649 82.3844 176.594 83.5429 176.385 85.1004Z" fill="black"/>
<path d="M193.964 86.0135C193.756 87.5605 194.463 88.9045 195.547 89.013C196.631 89.1215 197.678 87.963 197.887 86.402C198.095 84.841 197.388 83.511 196.308 83.406C195.228 83.301 194.173 84.456 193.964 86.0135Z" fill="black"/>
<path d="M183.297 79.5007C183.297 79.5007 179.993 75.1397 172.504 79.2767" stroke="black" stroke-width="7.24" stroke-miterlimit="10"/>
<path d="M189.105 110.675V134.867" stroke="black" stroke-width="7.24" stroke-miterlimit="10"/>
<path d="M77.3418 255.438C77.3418 255.438 88.9942 245.988 104.127 235.488C117.301 226.343 133.101 216.371 146.078 211.149C147.739 210.488 149.35 209.896 150.917 209.399C154.655 208.18 158.666 207.701 162.651 207.999C163.485 208.058 164.315 208.153 165.138 208.286" stroke="black" stroke-width="7.24" stroke-miterlimit="10"/>
<path d="M156.328 240.581C143.53 243.86 135.469 251.602 129.387 262.47C125.342 269.687 121.841 277.985 115.481 283.97C109.301 289.749 102.07 294.82 93.6979 298.082C78.5076 303.997 59.804 303.542 49.9349 290.68C43.26 281.958 40.6342 271.122 39.3009 260.93C37.0105 243.216 44.2416 193.285 75.8409 158.653C85.9923 147.512 98.6549 137.964 114.336 131.573C125.342 127.1 137.784 124.174 151.886 123.345L155.837 105.904" stroke="black" stroke-width="7.24" stroke-miterlimit="10"/>
<path d="M250.324 305.432V314.175" stroke="black" stroke-width="7.24" stroke-miterlimit="10"/>
<path d="M72.896 302.311V314.176" stroke="black" stroke-width="7.24" stroke-miterlimit="10"/>
<path d="M167.665 96.1502C167.704 98.7742 166.616 101.319 164.606 103.301C163.479 103.747 162.252 103.977 161.011 103.976C155.502 103.976 151.035 99.5312 151.035 94.0362C150.996 91.4126 152.087 88.8685 154.099 86.8892C155.225 86.4409 156.452 86.2092 157.694 86.2102C163.203 86.2102 167.665 90.6587 167.665 96.1502Z" fill="#3FBDF1"/>
<path d="M157.702 106.09C163.205 106.09 167.665 101.64 167.665 96.1502C167.665 90.6605 163.205 86.2102 157.702 86.2102C152.2 86.2102 147.739 90.6605 147.739 96.1502C147.739 101.64 152.2 106.09 157.702 106.09Z" stroke="black" stroke-width="7.24" stroke-miterlimit="10"/>
<path d="M276.157 9.28368C270.019 7.71782 263.476 7.74473 257.356 9.36103C251.235 10.9773 245.813 14.1104 241.773 18.364C237.734 22.6177 235.259 27.8008 234.662 33.258C234.065 38.7152 235.372 44.2015 238.418 49.0231C241.465 53.8443 246.113 57.7846 251.777 60.3449C257.44 62.9055 263.863 63.9712 270.235 63.4081C276.606 62.8446 282.638 60.677 287.57 57.1795C292.502 53.6819 296.11 49.0115 297.94 43.7587C300.394 36.715 299.477 29.1259 295.392 22.6604C291.307 16.1952 284.388 11.3834 276.157 9.28368ZM259.887 55.9877C259.291 55.8355 258.736 55.5845 258.254 55.2489C257.772 54.9132 257.372 54.4995 257.076 54.0316C256.781 53.5636 256.596 53.0505 256.532 52.5213C256.468 51.9921 256.527 51.4573 256.705 50.9477C256.883 50.4381 257.176 49.9632 257.568 49.5505C257.961 49.1379 258.444 48.7952 258.991 48.5425C260.095 48.0319 261.392 47.9174 262.594 48.2247C263.797 48.532 264.808 49.2355 265.405 50.1809C266.002 51.1259 266.136 52.2354 265.777 53.2647C265.417 54.2941 264.595 55.1593 263.491 55.6699C262.386 56.1806 261.09 56.295 259.887 55.9877ZM276.247 27.6587C276.179 27.7987 276.113 27.9352 276.051 28.0682C273.397 33.6549 270.096 39.0005 266.198 44.0247C265.253 45.2497 262.292 44.4937 262.284 43.0237C262.339 38.4555 262.749 33.8954 263.511 29.3737C263.985 26.0697 263.617 20.4137 266.738 17.8727C269.507 15.5977 274.73 16.5742 277.192 18.7582C279.912 21.1837 277.556 24.9952 276.235 27.6587H276.247Z" fill="#D7E8F0"/>
<path d="M298.562 168.19C296.315 170.145 294.796 172.627 294.197 175.321C293.598 178.015 293.946 180.8 295.197 183.325C296.449 185.85 298.547 188 301.227 189.504C303.906 191.008 307.047 191.798 310.251 191.775C313.455 191.751 316.58 190.915 319.229 189.372C321.878 187.829 323.932 185.648 325.133 183.105C326.333 180.563 326.625 177.773 325.973 175.088C325.32 172.403 323.752 169.944 321.466 168.022C318.402 165.447 314.268 164.017 309.973 164.049C305.678 164.08 301.574 165.57 298.562 168.19ZM318.881 185.281C318.441 185.664 317.84 185.882 317.212 185.887C316.584 185.892 315.979 185.682 315.531 185.305C315.083 184.929 314.829 184.415 314.823 183.877C314.818 183.34 315.062 182.822 315.503 182.439C315.721 182.249 315.98 182.098 316.267 181.994C316.553 181.89 316.861 181.835 317.171 181.833C317.483 181.831 317.791 181.881 318.079 181.981C318.368 182.08 318.631 182.228 318.852 182.414C319.074 182.601 319.251 182.823 319.372 183.068C319.494 183.313 319.558 183.576 319.56 183.843C319.563 184.109 319.504 184.373 319.388 184.62C319.271 184.866 319.099 185.091 318.881 185.281ZM307.985 172.523C310.141 174.938 312.484 177.423 314.178 180.097C314.587 180.741 313.503 181.686 312.742 181.343C310.392 180.254 308.131 179.031 305.973 177.682C304.378 176.73 301.368 175.544 300.787 173.769C300.259 172.187 301.985 170.441 303.691 170.021C305.785 169.51 306.897 171.34 307.985 172.523Z" fill="#3FBDF1"/>
<path d="M362.08 57.1528C363.693 55.4539 364.682 53.3833 364.921 51.2035C365.16 49.0237 364.638 46.832 363.421 44.906C362.205 42.9799 360.348 41.406 358.086 40.3826C355.824 39.3595 353.259 38.9332 350.713 39.1579C348.169 39.3826 345.758 40.2482 343.788 41.6447C341.818 43.0415 340.376 44.9067 339.644 47.0049C338.913 49.1028 338.924 51.3393 339.678 53.4316C340.432 55.5239 341.894 57.3779 343.879 58.7593C345.197 59.6767 346.714 60.3627 348.342 60.7785C349.97 61.1943 351.678 61.3315 353.368 61.182C355.058 61.0329 356.697 60.6003 358.192 59.9091C359.687 59.2175 361.008 58.2809 362.08 57.1528ZM344.423 44.8713C344.58 44.7061 344.773 44.5693 344.991 44.4681C345.209 44.367 345.449 44.3036 345.696 44.2816C345.943 44.2595 346.193 44.2795 346.431 44.3404C346.669 44.4009 346.891 44.501 347.084 44.6351C347.277 44.7691 347.436 44.9343 347.555 45.1212C347.673 45.3081 347.747 45.5129 347.773 45.7246C347.798 45.936 347.775 46.1495 347.704 46.3532C347.633 46.5569 347.516 46.7466 347.36 46.9118C347.043 47.245 346.585 47.4571 346.086 47.5016C345.588 47.5457 345.088 47.4186 344.699 47.1481C344.31 46.8775 344.062 46.4855 344.01 46.0585C343.958 45.6315 344.107 45.2045 344.423 44.8713ZM354.21 54.3213C352.284 52.5398 350.21 50.7268 348.619 48.6968C348.235 48.2103 349.028 47.3913 349.65 47.6153C351.62 48.3339 353.531 49.1641 355.372 50.1003C356.722 50.7548 359.221 51.5003 359.838 52.8793C360.394 54.1008 359.176 55.6023 357.855 56.0293C356.223 56.5683 355.176 55.1858 354.21 54.3003V54.3213Z" fill="#3FBDF1"/>
<path d="M233.49 130.142C238.054 136.792 237.846 141.527 236.66 149.203C236.185 152.125 239.862 154.103 242.844 152.633C269.187 139.683 293.776 149.924 325.188 143.575C336.721 141.258 351.102 136.456 360.959 128.735C364.23 124.579 365.977 119.682 365.977 114.672C365.977 93.6719 332.439 76.6234 291.077 76.6234C264.57 76.6234 241.281 83.6234 227.968 94.1689C227.968 94.1689 227.968 94.1689 227.932 94.2004C224.553 98.5299 222.696 103.262 222.696 108.2C222.676 115.736 229.224 123.905 233.49 130.142Z" fill="#D7E8F0"/>
<path d="M222.795 108.2C222.795 108.375 222.795 108.55 222.795 108.732C222.942 116.082 227.253 122.931 232.357 128.857C235.776 132.819 239.834 137.222 238.872 142.08C238.463 144.222 237.052 146.164 236.701 148.313C236.349 150.462 237.686 153.143 240.222 153.255C241.834 153.325 243.204 152.345 244.48 151.505C252.026 146.5 261.834 144.628 271.372 144.299C280.909 143.97 290.435 145.048 299.977 145.279C313.736 145.629 327.711 144.145 340.419 139.63C351.806 135.591 362.239 128.962 369.09 120.107C375.822 111.413 371.842 98.7885 364.66 91.2285C357.928 84.134 348.174 79.5945 338.17 76.3955C311.261 67.7995 280.55 67.9955 254.014 77.414C246.136 80.214 238.517 83.854 232.611 89.1215C226.856 94.2525 222.856 101.091 222.795 108.2Z" stroke="black" stroke-width="7.24" stroke-miterlimit="10"/>
<path d="M333.2 116.565C338.906 116.565 343.531 112.607 343.531 107.724C343.531 102.841 338.906 98.8827 333.2 98.8827C327.494 98.8827 322.869 102.841 322.869 107.724C322.869 112.607 327.494 116.565 333.2 116.565Z" fill="white"/>
<path d="M299.785 116.565C305.491 116.565 310.116 112.607 310.116 107.724C310.116 102.841 305.491 98.8827 299.785 98.8827C294.079 98.8827 289.453 102.841 289.453 107.724C289.453 112.607 294.079 116.565 299.785 116.565Z" fill="white"/>
<path d="M265.719 116.565C271.425 116.565 276.05 112.607 276.05 107.724C276.05 102.841 271.425 98.8827 265.719 98.8827C260.013 98.8827 255.388 102.841 255.388 107.724C255.388 112.607 260.013 116.565 265.719 116.565Z" fill="white"/>
</svg>
