<svg width="307" height="342" viewBox="0 0 307 342" fill="none" xmlns="http://www.w3.org/2000/svg">
<path d="M215.464 164.496C186.84 179.472 151.921 161.826 153.562 161.519C207.674 151.181 212.455 121.187 212.455 121.187C201.652 97.9952 172.206 105.461 172.206 105.461C171.354 138.372 126.77 140.226 126.77 140.226C123.907 129.547 124.064 104.615 124.064 104.615C110.551 96.3141 107.815 99.8373 107.815 99.8373C112.077 66.8886 129.238 56.2663 129.238 56.2663C132.097 53.9262 144.877 48.6657 151.44 47.9842L151.674 48.8978C151.674 48.8978 145.039 63.4552 157.755 64.4137C168.456 65.2374 174.537 53.6641 176.195 49.9911C190.108 53.7802 203.387 62.2608 212.221 76.5261C233.119 110.276 215.464 164.496 215.464 164.496Z" fill="#2E2E2E"/>
<path d="M218.558 150.294L288.109 190.731C301.596 198.571 299.862 216.416 285.07 222.133L203.677 253.607C196.107 256.533 187.808 257.699 179.577 256.991C171.347 256.284 163.462 253.727 156.682 249.567L125.424 230.367" stroke="black" stroke-width="4.21" stroke-miterlimit="10"/>
<path d="M218.558 163.334L216.219 161.971L288.122 203.764C301.609 211.604 299.875 229.449 285.084 235.166L203.69 266.64C196.12 269.566 187.821 270.731 179.591 270.024C171.36 269.316 163.475 266.759 156.695 262.6L116.953 237.731" stroke="black" stroke-width="4.21" stroke-miterlimit="10"/>
<path d="M279.083 219.902L204.273 248.833C197.317 251.521 189.69 252.592 182.125 251.941C174.561 251.291 167.315 248.941 161.084 245.119L132.417 227.424C136.364 224.766 140.787 222.703 145.504 221.321C157.321 217.794 168.853 213.57 180.022 208.676C188.5 204.991 195.947 199.707 201.831 193.2C207.716 186.693 211.892 179.125 214.062 171.036C215.562 165.439 216.879 159.778 217.957 154.086L283.796 192.326C296.189 199.529 292.673 214.652 279.083 219.902Z" fill="#3FBDF1"/>
<path d="M86.3167 303.749C86.3167 303.749 99.4334 298.971 101.948 295.369C101.948 295.369 102.421 303.546 99.9661 306.34C97.5115 309.133 82.8436 316.516 82.0552 315.591C81.2669 314.667 86.3167 303.749 86.3167 303.749Z" fill="#3FBDF1"/>
<path d="M45.9393 323.234C45.9393 323.234 48.3257 326.08 56.7932 323.234C65.2607 320.389 83.6829 309.909 83.6829 309.909C83.6829 309.909 78.5436 322.032 76.6813 323.365C74.8191 324.698 39.6366 339.84 39.6366 339.84C39.6366 339.84 23.9076 341.805 29.8353 331.977L45.9393 323.234Z" fill="#3FBDF1"/>
<path d="M96.5745 164.825C77.1849 171.456 56.666 187.035 62.5681 230.179L64.2088 241.389" stroke="black" stroke-width="4.21" stroke-miterlimit="10"/>
<path d="M96.5439 136.649C99.7145 132.673 102.578 128.375 104.334 123.747C106.09 119.119 106.179 114.106 106.669 109.238C107.973 96.186 109.993 85.3916 115.725 73.2342C120.689 62.7131 135.685 49.1591 150.605 47.8749L151.947 47.7738" stroke="black" stroke-width="4.21" stroke-miterlimit="10"/>
<path d="M134.045 163.87C133.972 163.686 133.9 163.514 133.823 163.334" stroke="black" stroke-width="4.21" stroke-miterlimit="10"/>
<path d="M126.771 139.416C126.038 135.631 125.492 131.962 125.066 128.48C125.067 128.414 125.059 128.349 125.041 128.285C122.808 108.841 125.066 94.6958 125.066 94.6958" stroke="black" stroke-width="4.21" stroke-miterlimit="10"/>
<path d="M178.893 21.4082L175.483 22.5766C175.483 22.6702 175.483 23.8384 175.339 25.4746C175.18 27.4287 174.826 29.3667 174.282 31.2668C174.584 29.9713 175.023 26.8936 173.097 24.752C173.067 24.7081 173.033 24.6666 172.995 24.6284C171.716 23.2767 170.14 23.8122 168.874 24.7407C168 25.3903 167.237 26.147 166.607 26.9872C166.828 24.4857 166.317 21.9764 165.124 19.6971C164.346 18.1423 163.314 16.6956 162.06 15.4026C163.99 21.2435 161.514 25.0665 161.514 25.0665C154.973 26.4181 150.435 26.1298 147.051 25.6169C144.2 23.2805 145.189 14.8671 145.189 14.8671C142.321 16.9264 143.011 24.8942 143.011 24.8942C142.645 22.8151 142.69 20.6958 143.143 18.63C141.719 20.4002 140.896 22.4893 140.77 24.6546L140.719 24.6321C140.521 24.5876 140.326 24.5337 140.135 24.4711C139.784 24.3086 139.444 24.1286 139.116 23.932L137.229 22.8087C140.079 10.0297 150.047 1.99465 165.448 4.35349C166.453 4.50572 167.443 4.73116 168.405 5.02744C178.552 9.67396 178.893 21.4082 178.893 21.4082Z" fill="#3FBDF1"/>
<path d="M91.0043 145.864L87.1221 135.597C87.0361 135.358 86.8822 135.142 86.6751 134.97C86.4676 134.798 86.214 134.675 85.9374 134.613C85.9034 134.613 85.865 134.613 85.8267 134.59C85.7883 134.568 85.7798 134.59 85.7542 134.59C85.6647 134.585 85.5752 134.585 85.4857 134.59C85.0549 134.592 84.6411 134.736 84.3266 134.994C84.0113 135.25 83.7599 135.561 83.5873 135.906C83.4151 136.251 83.3256 136.624 83.3252 137.001C83.3256 137.296 83.3789 137.59 83.4829 137.87C84.3352 140.038 85.8522 143.951 86.5724 145.733" fill="#3FBDF1"/>
<path d="M90.1266 145.864L85.9419 134.613C85.9078 134.613 85.8694 134.613 85.8311 134.591C85.7927 134.568 85.7842 134.591 85.7587 134.591L83.564 134.216C82.3921 134.025 81.2202 133.819 80.0483 133.629C78.642 133.381 77.2272 133.175 75.8252 132.88C75.4941 132.797 75.1541 132.747 74.811 132.73C74.3789 132.729 73.9634 132.875 73.6519 133.138C73.334 133.393 73.0804 133.705 72.9078 134.052C72.7353 134.399 72.6479 134.774 72.6505 135.152C72.6483 135.444 72.7016 135.734 72.8081 136.01C73.7499 138.436 75.544 143.026 76.115 144.419L90.1266 145.864Z" fill="#3FBDF1"/>
<path d="M172.867 94.6921C172.441 98.8594 172.219 103.903 172.07 110.242C172.07 123.721 155.109 134.882 140.037 137.436L112.397 142.921C108.745 143.542 105.51 141.539 102.971 140.21C100.358 138.843 97.6821 137.215 95.7985 136.005C93.0882 134.264 87.868 135.665 88.9376 139.817C89.1681 140.607 89.6032 141.339 90.2084 141.956C90.8139 142.574 91.5733 143.061 92.4277 143.378C92.9088 143.567 93.4045 143.727 93.9107 143.857C94.0995 143.898 94.267 143.994 94.3876 144.128C94.5086 144.261 94.5755 144.426 94.5785 144.597C94.5815 144.768 94.5201 144.935 94.4038 145.072C94.2878 145.209 94.1234 145.308 93.9363 145.355C91.5413 146.081 87.1563 146.512 80.0823 144.231C71.0182 141.3 70.3151 159.474 82.7074 162.638H82.7543C94.1707 165.67 106.456 165.281 118.256 164.847C131.656 164.401 144.989 162.972 158.118 160.575C164.796 159.332 171.656 158.04 177.767 155.385C188.293 150.814 195.879 145.572 203.093 137.413C211.19 128.266 214.646 116.266 216.598 105.015C218.831 92.1423 215.745 81.273 207.892 70.194L207.602 69.7896" stroke="black" stroke-width="4.21" stroke-miterlimit="10"/>
<path d="M91.0043 145.864L87.1221 135.597C87.0361 135.358 86.8822 135.142 86.6751 134.97C86.4676 134.798 86.214 134.675 85.9374 134.613C85.9034 134.613 85.865 134.613 85.8267 134.59C85.7883 134.568 85.7798 134.59 85.7542 134.59C85.6647 134.585 85.5752 134.585 85.4857 134.59C85.0549 134.592 84.6411 134.736 84.3266 134.994C84.0113 135.25 83.7599 135.561 83.5873 135.906C83.4151 136.251 83.3256 136.624 83.3252 137.001C83.3256 137.296 83.3789 137.59 83.4829 137.87C84.3352 140.038 85.8522 143.951 86.5724 145.733" stroke="black" stroke-width="4.21" stroke-miterlimit="10"/>
<path d="M85.9419 134.613C85.9078 134.613 85.8694 134.613 85.8311 134.591C85.7927 134.568 85.7842 134.591 85.7587 134.591L83.564 134.216C82.3921 134.025 81.2202 133.819 80.0483 133.629C78.642 133.381 77.2272 133.175 75.8252 132.88C75.4941 132.797 75.1541 132.747 74.811 132.73C74.3789 132.729 73.9634 132.875 73.6519 133.138C73.334 133.393 73.0804 133.705 72.9078 134.052C72.7353 134.399 72.6479 134.774 72.6505 135.152C72.6483 135.444 72.7016 135.734 72.8081 136.01C73.7499 138.436 75.544 143.026 76.115 144.419" stroke="black" stroke-width="4.21" stroke-miterlimit="10"/>
<path d="M139.444 24.2862C139.444 29.1536 140.522 33.8076 143.182 38.106C145.312 41.5581 148.44 45.0364 152.915 46.1784C153.906 46.4296 154.934 46.5558 155.966 46.5528C163.56 46.5229 164.745 38.6189 164.745 38.6189" stroke="black" stroke-width="4.21" stroke-miterlimit="10"/>
<path d="M175.083 27.1104V27.1329C174.731 29.5479 174.126 31.9295 173.276 34.2468C172.26 37.0111 172.02 39.9503 172.577 42.8135L173.757 48.8454C173.811 49.1142 173.95 49.3643 174.158 49.5669C174.366 49.7694 174.635 49.9166 174.933 49.9911C189.917 53.8139 203.217 62.2495 210.955 74.4293C220.608 89.6382 222.368 107.955 221.588 125.028C220.902 139.829 218.179 154.544 214.313 168.947C211.951 177.751 207.405 185.987 201.001 193.068C194.596 200.15 186.491 205.901 177.264 209.912C165.123 215.239 152.584 219.836 139.734 223.672C132.932 225.651 126.717 228.938 121.541 233.292C116.366 237.646 112.36 242.959 109.814 248.844L79.6177 319.392C78.508 321.997 76.3194 324.136 73.4898 325.383L44.5546 338.154C40.9008 339.761 36.7327 340.226 32.7376 339.472C31.7021 339.276 30.7573 338.81 30.0273 338.135C29.2969 337.46 28.8149 336.608 28.644 335.689C28.4727 334.771 28.6206 333.828 29.0681 332.984C29.5155 332.14 30.2417 331.434 31.1523 330.958L45.931 323.234L66.2538 232.205C67.684 224.084 71.0991 216.332 76.264 209.48C81.4284 202.629 88.2207 196.842 96.1734 192.517C97.2337 191.949 98.3387 191.449 99.4803 191.019L143.535 174.212" stroke="black" stroke-width="4.21" stroke-miterlimit="10"/>
<path d="M162.972 3.47358C160.616 2.9804 158.178 2.87125 155.778 3.15158C155.68 3.15349 155.582 3.16102 155.484 3.17405" stroke="black" stroke-width="4.21" stroke-miterlimit="10"/>
<path d="M152.301 47.9943C152.301 47.9943 144.507 63.6937 158.446 64.4687C170.954 65.1726 175.543 50.2408 175.543 50.2408" stroke="black" stroke-width="4.21" stroke-miterlimit="10"/>
<path d="M174.103 31.8382C174.192 31.5499 175.534 27.2928 172.969 24.6119C170.404 21.9311 166.926 26.5289 166.577 26.9895C167.259 20.3887 162.038 15.3827 162.038 15.3827C163.965 21.2274 161.484 25.0462 161.484 25.0462C151.952 27.0082 146.706 25.5143 142.986 24.8703C142.619 22.7923 142.666 20.6744 143.122 18.6102C141.693 20.3758 140.87 22.4635 140.748 24.6269H140.689C139.273 24.2963 137.93 23.7583 136.717 23.0356L134.829 21.9124C137.684 9.13742 147.648 1.09493 163.048 3.45376C178.449 5.81259 178.88 21.3734 178.88 21.3734L175.449 22.5451C175.449 22.5451 175.479 27.6822 174.103 31.8382Z" stroke="black" stroke-width="4.21" stroke-miterlimit="10"/>
<path d="M145.419 31.1721V37.3837C145.419 37.4593 145.44 37.5339 145.48 37.6009C145.519 37.6683 145.576 37.7263 145.646 37.7709C145.715 37.8154 145.796 37.8446 145.881 37.857C145.966 37.869 146.053 37.8633 146.135 37.8405C146.691 37.6788 147.202 37.4159 147.635 37.0692" stroke="black" stroke-width="4.21" stroke-miterlimit="10"/>
<path d="M141.191 35.8879C143.421 35.1241 144.249 32.2965 143.04 29.5722C141.831 26.848 139.043 25.2589 136.813 26.0227C134.583 26.7866 133.755 29.6142 134.964 32.3384C136.173 35.0627 138.961 36.6517 141.191 35.8879Z" stroke="black" stroke-width="4.21" stroke-miterlimit="10"/>
<path d="M154.61 37.6649C156.84 36.9011 157.668 34.0735 156.459 31.3492C155.25 28.625 152.463 27.0359 150.233 27.7998C148.002 28.5636 147.175 31.3912 148.384 34.1154C149.592 36.8397 152.38 38.4287 154.61 37.6649Z" stroke="black" stroke-width="4.21" stroke-miterlimit="10"/>
<path d="M143.544 31.4941C143.544 31.4941 144.865 30.1687 147.635 31.7225" stroke="black" stroke-width="4.21" stroke-miterlimit="10"/>
<path d="M151.675 45.786C151.675 45.786 152.634 48.6391 155.455 57.8872" stroke="black" stroke-width="4.21" stroke-miterlimit="10"/>
<path d="M81.0459 316.059L97.6655 308.178C98.618 307.724 99.4298 307.073 100.031 306.281C100.631 305.489 101.003 304.579 101.113 303.632C103.874 279.801 103.031 264.734 103.031 264.734" stroke="black" stroke-width="4.21" stroke-miterlimit="10"/>
<path d="M65.96 193.842L2 154.569" stroke="black" stroke-width="4.21" stroke-miterlimit="10"/>
<path d="M62.3378 204.663L2 167.611" stroke="black" stroke-width="4.21" stroke-miterlimit="10"/>
<path d="M307 130.016V162.167C307 163.641 306.513 165.084 305.597 166.319C304.682 167.555 303.378 168.531 301.844 169.127L256.459 186.785L242.584 205.311C242.227 205.771 241.713 206.118 241.116 206.304C240.519 206.489 239.87 206.503 239.264 206.344C238.658 206.184 238.125 205.859 237.743 205.416C237.36 204.972 237.149 204.433 237.138 203.877V194.307L232.484 196.116C231.449 196.513 230.318 196.679 229.192 196.597C228.067 196.515 226.981 196.189 226.034 195.648C225.087 195.107 224.308 194.367 223.767 193.496C223.226 192.625 222.94 191.649 222.935 190.656V163.807C222.935 160.458 224.05 157.182 226.142 154.383C228.234 151.584 231.212 149.383 234.709 148.051L297.079 124.295C298.159 123.883 299.339 123.713 300.512 123.802C301.684 123.89 302.814 124.234 303.798 124.801C304.782 125.369 305.59 126.143 306.149 127.053C306.708 127.963 307 128.981 307 130.016Z" fill="#D7E8F0"/>
<path d="M251.327 172.038C253.563 168.249 252.958 164.077 249.976 162.719C246.994 161.361 242.765 163.331 240.529 167.121C238.294 170.91 238.899 175.083 241.881 176.441C244.862 177.799 249.092 175.828 251.327 172.038Z" fill="white"/>
<path d="M270.71 164.749C272.945 160.96 272.34 156.787 269.359 155.429C266.377 154.071 262.147 156.042 259.912 159.831C257.676 163.621 258.281 167.793 261.263 169.151C264.245 170.509 268.474 168.538 270.71 164.749Z" fill="white"/>
<path d="M289.44 156.877C291.675 153.088 291.071 148.915 288.089 147.558C285.107 146.2 280.878 148.171 278.642 151.96C276.407 155.749 277.012 159.922 279.994 161.28C282.975 162.637 287.204 160.666 289.44 156.877Z" fill="white"/>
</svg>
