<svg width="15" height="9" viewBox="0 0 15 9" fill="none" xmlns="http://www.w3.org/2000/svg">
<path d="M0.681818 7.5H14.3182V9H0.681818V7.5ZM1.46591 4.4625L2.04545 3.3525L2.625 4.4625L3.51136 3.9L2.93182 2.79H4.09091V1.665H2.93182L3.51136 0.5625L2.625 0L2.04545 1.1025L1.46591 0L0.579545 0.5625L1.15909 1.665H0V2.79H1.15909L0.579545 3.9L1.46591 4.4625ZM6.03409 3.9L6.92045 4.4625L7.5 3.3525L8.07955 4.4625L8.96591 3.9L8.38636 2.79H9.54545V1.665H8.38636L8.96591 0.5625L8.07955 0L7.5 1.1025L6.92045 0L6.03409 0.5625L6.61364 1.665H5.45455V2.79H6.61364L6.03409 3.9ZM15 1.665H13.8409L14.4205 0.5625L13.5341 0L12.9545 1.1025L12.375 0L11.4886 0.5625L12.0682 1.665H10.9091V2.79H12.0682L11.4886 3.9L12.375 4.4625L12.9545 3.3525L13.5341 4.4625L14.4205 3.9L13.8409 2.79H15V1.665Z" fill="#756969"/>
</svg>
