<svg width="735" height="497" viewBox="0 0 735 497" fill="none" xmlns="http://www.w3.org/2000/svg">
<mask id="mask0_2_80" style="mask-type:luminance" maskUnits="userSpaceOnUse" x="194" y="85" width="486" height="345">
<path d="M679.329 85.4371H194V429.761H679.329V85.4371Z" fill="white"/>
</mask>
<g mask="url(#mask0_2_80)">
<path opacity="0.5" d="M314.71 115.554V261.368C314.71 267.616 317.285 273.609 321.867 278.029C326.45 282.446 332.665 284.93 339.145 284.93L586.054 285.917C589.268 285.925 592.453 285.324 595.427 284.143C598.399 282.963 601.101 281.229 603.379 279.04C605.656 276.852 607.462 274.252 608.694 271.387C609.927 268.525 610.561 265.454 610.561 262.355V116.541L314.71 115.554Z" fill="#9CE5E5"/>
<path d="M230.579 426.652H214.923C205.413 426.652 197.804 416.989 197.804 404.433V151.251C197.804 138.905 205.12 129.029 214.923 129.029H230.579C221.142 129.029 213.46 138.905 213.46 151.251V404.433C213.094 416.989 220.776 426.652 230.579 426.652Z" fill="#CFB0FF"/>
<path d="M596.956 429.61H557.231C556.772 429.677 556.305 429.648 555.858 429.526C555.413 429.401 555 429.187 554.648 428.896C554.297 428.604 554.015 428.244 553.822 427.836C553.628 427.431 553.528 426.988 553.528 426.541C553.528 426.095 553.628 425.652 553.822 425.247C554.015 424.841 554.297 424.479 554.648 424.188C555 423.896 555.413 423.681 555.858 423.559C556.305 423.435 556.772 423.406 557.231 423.473H596.956C602.213 423.473 607.256 421.459 610.974 417.874C614.693 414.288 616.781 409.425 616.781 404.355V151.104C616.781 148.593 616.269 146.107 615.273 143.788C614.275 141.469 612.815 139.361 610.974 137.586C609.133 135.811 606.947 134.402 604.543 133.442C602.137 132.481 599.559 131.987 596.956 131.987C596.102 131.987 595.283 131.66 594.679 131.077C594.075 130.495 593.736 129.706 593.736 128.883C593.736 128.059 594.075 127.27 594.679 126.688C595.283 126.106 596.102 125.779 596.956 125.779C600.405 125.779 603.819 126.434 607.006 127.707C610.193 128.979 613.088 130.845 615.527 133.196C617.966 135.548 619.899 138.34 621.22 141.412C622.54 144.485 623.22 147.778 623.22 151.104V404.355C623.22 407.678 622.538 410.969 621.218 414.036C619.898 417.105 617.962 419.893 615.522 422.239C613.082 424.584 610.187 426.444 607 427.708C603.815 428.974 600.4 429.619 596.956 429.61Z" fill="#3E3126"/>
<path d="M535.207 117.825H297.956C297.083 117.825 296.245 117.491 295.628 116.895C295.011 116.3 294.664 115.492 294.664 114.65C294.664 113.809 295.011 113.001 295.628 112.406C296.245 111.811 297.083 111.476 297.956 111.476H535.207C536.08 111.476 536.918 111.811 537.535 112.406C538.153 113.001 538.5 113.809 538.5 114.65C538.5 115.492 538.153 116.3 537.535 116.895C536.918 117.491 536.08 117.825 535.207 117.825Z" fill="#3E3126"/>
<path d="M294.957 132.124H278.351C277.497 132.124 276.678 131.797 276.075 131.215C275.471 130.633 275.132 129.844 275.132 129.02C275.122 128.61 275.198 128.202 275.356 127.821C275.515 127.44 275.751 127.094 276.052 126.804C276.353 126.514 276.712 126.286 277.107 126.133C277.502 125.98 277.925 125.907 278.351 125.916H294.957C295.811 125.916 296.63 126.243 297.234 126.825C297.837 127.408 298.176 128.197 298.176 129.02C298.176 129.844 297.837 130.633 297.234 131.215C296.63 131.797 295.811 132.124 294.957 132.124Z" fill="#3E3126"/>
<path d="M587.808 144.353H246.747C238.585 144.353 231.969 150.733 231.969 158.603V396.406C231.969 404.275 238.585 410.655 246.747 410.655H587.808C595.97 410.655 602.587 404.275 602.587 396.406V158.603C602.587 150.733 595.97 144.353 587.808 144.353Z" fill="#7C6887"/>
<path opacity="0.5" d="M651.897 281.192C649.975 285.376 646.84 288.936 642.867 291.439C638.894 293.943 634.255 295.285 629.511 295.301L382.529 294.242C376.055 294.225 369.85 291.736 365.272 287.321C360.693 282.906 358.114 276.925 358.094 270.681V130.158H371.629V266.519C371.647 270.418 373.267 274.15 376.133 276.899C378.998 279.649 382.875 281.192 386.919 281.192H651.897Z" fill="#3D3344"/>
<path d="M232.772 250.934C232.488 250.965 232.201 250.936 231.93 250.849C231.66 250.763 231.411 250.622 231.203 250.433C230.994 250.246 230.83 250.017 230.722 249.762C230.614 249.508 230.565 249.233 230.577 248.959V158.239C230.558 156.085 230.983 153.948 231.829 151.954C232.675 149.96 233.925 148.148 235.505 146.625C237.085 145.101 238.963 143.897 241.032 143.081C243.1 142.265 245.315 141.855 247.55 141.873H309.88C310.152 141.863 310.423 141.908 310.676 142.003C310.929 142.099 311.159 142.244 311.352 142.43C311.544 142.615 311.694 142.837 311.794 143.081C311.893 143.325 311.939 143.586 311.929 143.849C311.929 144.372 311.713 144.875 311.329 145.245C310.945 145.616 310.424 145.824 309.88 145.824H247.55C244.174 145.824 240.936 147.117 238.549 149.419C236.161 151.721 234.82 154.843 234.82 158.098V248.959C234.82 249.483 234.604 249.985 234.22 250.356C233.836 250.725 233.315 250.934 232.772 250.934Z" fill="#3E3126"/>
<path d="M588.615 412.202H247.552C245.318 412.221 243.102 411.811 241.034 410.995C238.966 410.179 237.087 408.974 235.507 407.45C233.927 405.927 232.678 404.116 231.832 402.121C230.986 400.127 230.56 397.99 230.58 395.837V305.611C230.58 305.351 230.633 305.094 230.736 304.855C230.838 304.615 230.989 304.398 231.18 304.214C231.37 304.031 231.596 303.885 231.844 303.786C232.093 303.687 232.359 303.636 232.628 303.636C233.166 303.653 233.676 303.866 234.056 304.233C234.437 304.601 234.658 305.093 234.676 305.611V395.837C234.676 399.091 236.017 402.213 238.405 404.516C240.792 406.818 244.03 408.11 247.406 408.11H588.615C591.99 408.11 595.229 406.818 597.616 404.516C600.002 402.213 601.344 399.091 601.344 395.837V295.241C601.335 294.978 601.38 294.717 601.478 294.473C601.578 294.229 601.728 294.007 601.921 293.822C602.113 293.637 602.343 293.492 602.597 293.396C602.85 293.299 603.121 293.256 603.392 293.266C603.93 293.283 604.44 293.496 604.821 293.863C605.201 294.231 605.422 294.723 605.441 295.241V395.837C605.46 397.978 605.039 400.104 604.202 402.088C603.365 404.073 602.129 405.878 600.564 407.401C599 408.922 597.139 410.129 595.088 410.954C593.036 411.777 590.836 412.202 588.615 412.202Z" fill="#3E3126"/>
<path d="M232.772 295.018C232.488 295.048 232.201 295.019 231.93 294.933C231.66 294.847 231.411 294.704 231.203 294.517C230.994 294.329 230.83 294.099 230.722 293.845C230.614 293.591 230.565 293.317 230.577 293.042V272.373C230.567 272.11 230.613 271.849 230.712 271.605C230.811 271.361 230.962 271.139 231.154 270.954C231.346 270.768 231.576 270.622 231.83 270.528C232.083 270.431 232.354 270.387 232.625 270.398C233.169 270.398 233.69 270.605 234.074 270.976C234.458 271.347 234.674 271.849 234.674 272.373V293.042C234.675 293.542 234.48 294.025 234.127 294.391C233.774 294.758 233.289 294.981 232.772 295.018Z" fill="#3E3126"/>
<path opacity="0.35" d="M462.196 374.166C464.177 374.166 465.781 372.618 465.781 370.708C465.781 368.8 464.177 367.253 462.196 367.253C460.216 367.253 458.611 368.8 458.611 370.708C458.611 372.618 460.216 374.166 462.196 374.166Z" fill="#3D3344"/>
<path opacity="0.5" d="M587.81 394.482H475.438C475.473 394.223 475.473 393.963 475.438 393.705C475.438 392.283 474.853 390.919 473.81 389.915C472.767 388.909 471.353 388.344 469.878 388.344C468.404 388.344 466.99 388.909 465.947 389.915C464.905 390.919 464.319 392.283 464.319 393.705C464.319 393.705 464.319 394.2 464.319 394.482H455.906C456.104 393.936 456.227 393.366 456.27 392.788C456.27 391.124 455.585 389.527 454.364 388.349C453.142 387.172 451.488 386.511 449.76 386.511C448.033 386.511 446.378 387.172 445.156 388.349C443.936 389.527 443.248 391.124 443.248 392.788C443.173 393.35 443.173 393.92 443.248 394.482H246.747C242.866 394.482 239.145 392.995 236.401 390.349C233.657 387.703 232.115 384.115 232.115 380.373V396.457C232.115 400.199 233.657 403.787 236.401 406.433C239.145 409.079 242.866 410.566 246.747 410.566H587.81C591.69 410.566 595.412 409.079 598.155 406.433C600.899 403.787 602.441 400.199 602.441 396.457V380.231C602.46 382.096 602.096 383.945 601.369 385.674C600.643 387.403 599.568 388.975 598.207 390.299C596.847 391.625 595.227 392.676 593.442 393.394C591.657 394.112 589.743 394.482 587.81 394.482Z" fill="#3D3344"/>
<path opacity="0.35" d="M449.029 369.247C450.16 369.247 451.077 368.362 451.077 367.272C451.077 366.18 450.16 365.297 449.029 365.297C447.898 365.297 446.98 366.18 446.98 367.272C446.98 368.362 447.898 369.247 449.029 369.247Z" fill="#3D3344"/>
<path opacity="0.35" d="M476.902 373.269C477.67 373.269 478.292 372.669 478.292 371.929C478.292 371.189 477.67 370.589 476.902 370.589C476.134 370.589 475.512 371.189 475.512 371.929C475.512 372.669 476.134 373.269 476.902 373.269Z" fill="#3D3344"/>
<path opacity="0.35" d="M467.686 361.054C469.383 361.054 470.758 359.727 470.758 358.09C470.758 356.454 469.383 355.128 467.686 355.128C465.989 355.128 464.613 356.454 464.613 358.09C464.613 359.727 465.989 361.054 467.686 361.054Z" fill="#3D3344"/>
<path opacity="0.35" d="M436.519 369.87C438.216 369.87 439.59 368.543 439.59 366.907C439.59 365.272 438.216 363.945 436.519 363.945C434.821 363.945 433.445 365.272 433.445 366.907C433.445 368.543 434.821 369.87 436.519 369.87Z" fill="#3D3344"/>
<path d="M311.199 233.568C311.199 229.555 307.825 226.302 303.664 226.302C299.502 226.302 296.128 229.555 296.128 233.568V277.093C296.128 281.106 299.502 284.359 303.664 284.359C307.825 284.359 311.199 281.106 311.199 277.093V233.568Z" fill="#3D3344"/>
<path d="M657.456 86.5667H332.197C330.588 86.5551 328.986 86.769 327.441 87.2016H331.611C326.983 87.1418 322.516 88.8394 319.175 91.928C315.96 95.177 314.177 99.5008 314.2 103.991V322.676C314.37 327.168 316.341 331.421 319.698 334.539C323.055 337.657 327.536 339.398 332.197 339.395H657.456C662.218 339.395 666.784 337.577 670.157 334.338C673.531 331.098 675.435 326.702 675.453 322.112V103.991C675.453 99.382 673.561 94.9607 670.188 91.695C666.814 88.4294 662.238 86.5854 657.456 86.5667Z" fill="white"/>
<path opacity="0.2" d="M675.599 106.602V325.288C675.579 329.878 673.674 334.273 670.301 337.513C666.928 340.752 662.362 342.571 657.602 342.571H432.714C781.604 342.148 543.108 147.87 635.288 89.1076H657.235C659.643 89.0603 662.033 89.479 664.269 90.3388C666.504 91.1986 668.539 92.4821 670.251 94.1132C671.964 95.7444 673.319 97.6902 674.236 99.8354C675.155 101.981 675.618 104.282 675.599 106.602Z" fill="#C9D2DF"/>
<path d="M393.21 138.977H365.703C365.063 138.977 364.448 138.732 363.996 138.296C363.543 137.859 363.288 137.267 363.288 136.649C363.288 136.032 363.543 135.44 363.996 135.003C364.448 134.567 365.063 134.322 365.703 134.322H393.21C393.85 134.322 394.464 134.567 394.918 135.003C395.371 135.44 395.625 136.032 395.625 136.649C395.625 137.267 395.371 137.859 394.918 138.296C394.464 138.732 393.85 138.977 393.21 138.977Z" fill="white"/>
<path d="M393.212 225.328H365.703C365.357 225.387 365.001 225.372 364.66 225.284C364.32 225.196 364.003 225.037 363.734 224.818C363.463 224.6 363.246 224.327 363.096 224.019C362.948 223.711 362.871 223.375 362.871 223.035C362.871 222.695 362.948 222.36 363.096 222.052C363.246 221.744 363.463 221.471 363.734 221.252C364.003 221.034 364.32 220.875 364.66 220.787C365.001 220.699 365.357 220.684 365.703 220.743H393.212C393.558 220.684 393.914 220.699 394.255 220.787C394.595 220.875 394.912 221.034 395.181 221.252C395.452 221.471 395.669 221.744 395.817 222.052C395.967 222.36 396.044 222.695 396.044 223.035C396.044 223.375 395.967 223.711 395.817 224.019C395.669 224.327 395.452 224.6 395.181 224.818C394.912 225.037 394.595 225.196 394.255 225.284C393.914 225.372 393.558 225.387 393.212 225.328Z" fill="white"/>
<path d="M393.212 268.84H365.703C365.357 268.9 365.001 268.884 364.66 268.796C364.32 268.709 364.003 268.549 363.734 268.33C363.463 268.113 363.246 267.84 363.096 267.532C362.948 267.224 362.871 266.888 362.871 266.548C362.871 266.208 362.948 265.872 363.096 265.564C363.246 265.256 363.463 264.983 363.734 264.764C364.003 264.546 364.32 264.387 364.66 264.3C365.001 264.211 365.357 264.196 365.703 264.254H393.212C393.558 264.196 393.914 264.211 394.255 264.3C394.595 264.387 394.912 264.546 395.181 264.764C395.452 264.983 395.669 265.256 395.817 265.564C395.967 265.872 396.044 266.208 396.044 266.548C396.044 266.888 395.967 267.224 395.817 267.532C395.669 267.84 395.452 268.113 395.181 268.33C394.912 268.549 394.595 268.709 394.255 268.796C393.914 268.884 393.558 268.9 393.212 268.84Z" fill="white"/>
<path d="M333 341.455H314.272C309.524 341.417 304.984 339.573 301.64 336.322C298.297 333.072 296.421 328.679 296.421 324.101V105.768C296.421 101.189 298.297 96.7968 301.64 93.5464C304.984 90.2959 309.524 88.4512 314.272 88.414H333C330.637 88.414 328.296 88.8628 326.113 89.7349C323.929 90.6071 321.945 91.8853 320.274 93.4968C318.603 95.1082 317.277 97.0213 316.373 99.1268C315.469 101.232 315.003 103.489 315.003 105.768V324.452C315.099 328.994 317.037 333.319 320.402 336.497C323.767 339.675 328.29 341.455 333 341.455Z" fill="#CFB0FF"/>
<path opacity="0.6" d="M312.149 130.513C312.149 126.5 308.775 123.247 304.613 123.247C300.452 123.247 297.078 126.5 297.078 130.513V160.141C297.078 164.154 300.452 167.407 304.613 167.407C308.775 167.407 312.149 164.154 312.149 160.141V130.513Z" fill="#8647EA"/>
<path d="M644.215 117.122H329.636C329.189 117.122 328.761 116.951 328.446 116.647C328.13 116.342 327.953 115.93 327.953 115.499C327.953 115.069 328.13 114.656 328.446 114.352C328.761 114.048 329.189 113.877 329.636 113.877H644.215C644.661 113.877 645.09 114.048 645.405 114.352C645.72 114.656 645.898 115.069 645.898 115.499C645.898 115.93 645.72 116.342 645.405 116.647C645.09 116.951 644.661 117.122 644.215 117.122Z" fill="#3E3126"/>
<path d="M573.834 198.318H490.581C490.044 198.3 489.532 198.087 489.152 197.72C488.772 197.353 488.551 196.861 488.533 196.343C488.533 195.819 488.748 195.317 489.132 194.946C489.517 194.576 490.038 194.368 490.581 194.368H573.834C574.107 194.358 574.378 194.402 574.63 194.498C574.883 194.594 575.113 194.739 575.306 194.924C575.498 195.109 575.648 195.331 575.748 195.575C575.848 195.819 575.893 196.081 575.882 196.343C575.882 196.867 575.667 197.369 575.283 197.74C574.898 198.11 574.378 198.318 573.834 198.318Z" fill="#3E3126"/>
<path d="M573.837 179.046H490.584C490.287 179.101 489.982 179.091 489.689 179.019C489.397 178.947 489.126 178.814 488.893 178.628C488.661 178.443 488.474 178.21 488.345 177.947C488.216 177.684 488.15 177.397 488.15 177.106C488.15 176.815 488.216 176.528 488.345 176.264C488.474 176.001 488.661 175.769 488.893 175.583C489.126 175.398 489.397 175.265 489.689 175.192C489.982 175.12 490.287 175.111 490.584 175.166H573.837C574.134 175.111 574.44 175.12 574.732 175.192C575.024 175.265 575.295 175.398 575.528 175.583C575.76 175.769 575.948 176.001 576.076 176.264C576.205 176.528 576.272 176.815 576.272 177.106C576.272 177.397 576.205 177.684 576.076 177.947C575.948 178.21 575.76 178.443 575.528 178.628C575.295 178.814 575.024 178.947 574.732 179.019C574.44 179.091 574.134 179.101 573.837 179.046Z" fill="#3E3126"/>
<path d="M618.317 217.568H490.584C490.287 217.623 489.982 217.614 489.689 217.542C489.397 217.47 489.126 217.336 488.893 217.151C488.661 216.965 488.474 216.733 488.345 216.47C488.216 216.206 488.15 215.919 488.15 215.628C488.15 215.337 488.216 215.05 488.345 214.787C488.474 214.524 488.661 214.291 488.893 214.106C489.126 213.92 489.397 213.787 489.689 213.715C489.982 213.643 490.287 213.634 490.584 213.688H618.317C618.614 213.634 618.918 213.643 619.211 213.715C619.503 213.787 619.775 213.92 620.009 214.106C620.24 214.291 620.428 214.524 620.557 214.787C620.685 215.05 620.752 215.337 620.752 215.628C620.752 215.919 620.685 216.206 620.557 216.47C620.428 216.733 620.24 216.965 620.009 217.151C619.775 217.336 619.503 217.47 619.211 217.542C618.918 217.614 618.614 217.623 618.317 217.568Z" fill="#3E3126"/>
<path d="M348.07 107.74C347.057 107.74 346.067 107.45 345.225 106.907C344.383 106.365 343.726 105.594 343.339 104.691C342.951 103.789 342.85 102.796 343.047 101.838C343.245 100.88 343.733 100 344.449 99.3098C345.165 98.6192 346.077 98.1489 347.07 97.9584C348.065 97.7678 349.095 97.8656 350.03 98.2394C350.966 98.6132 351.765 99.246 352.329 100.058C352.89 100.87 353.191 101.825 353.191 102.802C353.191 104.111 352.651 105.367 351.691 106.293C350.731 107.219 349.428 107.74 348.07 107.74ZM348.07 99.8388C347.621 99.7722 347.164 99.7999 346.728 99.9201C346.292 100.04 345.888 100.25 345.543 100.535C345.199 100.819 344.923 101.173 344.733 101.57C344.544 101.967 344.446 102.399 344.446 102.837C344.446 103.274 344.544 103.706 344.733 104.104C344.923 104.501 345.199 104.854 345.543 105.139C345.888 105.424 346.292 105.633 346.728 105.754C347.164 105.874 347.621 105.902 348.07 105.835C348.518 105.902 348.976 105.874 349.413 105.754C349.849 105.633 350.253 105.424 350.596 105.139C350.942 104.854 351.217 104.501 351.406 104.104C351.596 103.706 351.694 103.274 351.694 102.837C351.694 102.399 351.596 101.967 351.406 101.57C351.217 101.173 350.942 100.819 350.596 100.535C350.253 100.25 349.849 100.04 349.413 99.9201C348.976 99.7999 348.518 99.7722 348.07 99.8388Z" fill="#3E3126"/>
<path d="M365.849 107.74C365.176 107.74 364.51 107.612 363.89 107.364C363.267 107.116 362.703 106.752 362.227 106.293C361.752 105.835 361.375 105.29 361.117 104.691C360.86 104.092 360.728 103.45 360.728 102.802C360.728 102.153 360.86 101.511 361.117 100.912C361.375 100.313 361.752 99.7684 362.227 99.3098C362.703 98.8513 363.267 98.4875 363.89 98.2394C364.51 97.9912 365.176 97.8635 365.849 97.8635C366.521 97.8635 367.187 97.9912 367.808 98.2394C368.43 98.4875 368.995 98.8513 369.47 99.3098C369.946 99.7684 370.323 100.313 370.58 100.912C370.837 101.511 370.969 102.153 370.969 102.802C370.969 103.45 370.837 104.092 370.58 104.691C370.323 105.29 369.946 105.835 369.47 106.293C368.995 106.752 368.43 107.116 367.808 107.364C367.187 107.612 366.521 107.74 365.849 107.74ZM365.849 99.8388C365.22 99.8248 364.603 99.9925 364.074 100.32C363.546 100.648 363.131 101.121 362.884 101.678C362.637 102.235 362.568 102.851 362.687 103.446C362.807 104.041 363.108 104.588 363.552 105.016C363.996 105.445 364.563 105.735 365.181 105.85C365.797 105.965 366.436 105.899 367.013 105.66C367.591 105.422 368.082 105.022 368.421 104.513C368.762 104.003 368.936 103.407 368.921 102.802C368.962 102.389 368.913 101.974 368.777 101.581C368.641 101.188 368.421 100.827 368.132 100.522C367.843 100.216 367.49 99.9721 367.096 99.8058C366.703 99.6396 366.279 99.5547 365.849 99.5566V99.8388Z" fill="#3E3126"/>
<path d="M383.552 107.74C382.539 107.74 381.549 107.45 380.707 106.907C379.864 106.365 379.208 105.594 378.821 104.691C378.433 103.789 378.332 102.796 378.529 101.838C378.727 100.88 379.214 100 379.931 99.3098C380.647 98.6192 381.56 98.1489 382.553 97.9584C383.546 97.7678 384.576 97.8656 385.511 98.2394C386.447 98.6132 387.248 99.246 387.81 100.058C388.373 100.87 388.673 101.825 388.673 102.802C388.673 104.111 388.134 105.367 387.174 106.293C386.212 107.219 384.91 107.74 383.552 107.74ZM383.552 99.8388C382.809 99.9488 382.132 100.312 381.643 100.862C381.154 101.412 380.884 102.112 380.884 102.837C380.884 103.561 381.154 104.262 381.643 104.812C382.132 105.362 382.809 105.725 383.552 105.835C384 105.902 384.457 105.874 384.894 105.754C385.33 105.633 385.734 105.424 386.079 105.139C386.423 104.854 386.7 104.501 386.889 104.104C387.078 103.706 387.177 103.274 387.177 102.837C387.177 102.399 387.078 101.967 386.889 101.57C386.7 101.173 386.423 100.819 386.079 100.535C385.734 100.25 385.33 100.04 384.894 99.9201C384.457 99.7999 384 99.7722 383.552 99.8388Z" fill="#3E3126"/>
<path d="M264.669 133.325C266.972 133.325 268.839 131.524 268.839 129.304C268.839 127.083 266.972 125.282 264.669 125.282C262.366 125.282 260.499 127.083 260.499 129.304C260.499 131.524 262.366 133.325 264.669 133.325Z" fill="#3E3126"/>
<path d="M233.066 265.1C235.369 265.1 237.236 263.298 237.236 261.078C237.236 258.857 235.369 257.057 233.066 257.057C230.763 257.057 228.896 258.857 228.896 261.078C228.896 263.298 230.763 265.1 233.066 265.1Z" fill="#3E3126"/>
<path d="M258.453 193.661H257.721C257.49 193.57 257.282 193.434 257.107 193.262C256.933 193.089 256.798 192.885 256.708 192.66C256.619 192.435 256.579 192.196 256.59 191.955C256.6 191.715 256.662 191.479 256.77 191.263L266.573 168.9C266.766 168.486 267.117 168.16 267.553 167.989C267.989 167.818 268.477 167.816 268.914 167.983C269.14 168.059 269.347 168.181 269.52 168.339C269.693 168.498 269.829 168.691 269.919 168.905C270.009 169.118 270.051 169.348 270.042 169.578C270.032 169.809 269.972 170.034 269.865 170.241L259.843 192.532C259.74 192.825 259.556 193.085 259.311 193.284C259.066 193.483 258.769 193.613 258.453 193.661Z" fill="#3E3126"/>
<path d="M271.473 182.842H270.741C270.312 182.656 269.973 182.318 269.796 181.897C269.619 181.477 269.617 181.007 269.79 180.585L275.057 168.592C275.25 168.178 275.601 167.852 276.037 167.681C276.473 167.511 276.961 167.508 277.398 167.675C277.828 167.861 278.166 168.2 278.343 168.62C278.52 169.041 278.523 169.511 278.349 169.933L273.082 181.925C272.924 182.203 272.691 182.436 272.408 182.597C272.125 182.758 271.802 182.843 271.473 182.842Z" fill="#3E3126"/>
<path opacity="0.6" d="M305.786 187.522C309.705 187.522 312.882 184.458 312.882 180.679C312.882 176.9 309.705 173.836 305.786 173.836C301.867 173.836 298.69 176.9 298.69 180.679C298.69 184.458 301.867 187.522 305.786 187.522Z" fill="#8647EA"/>
<path d="M382.894 343.134H330.878C325.465 343.134 320.273 341.059 316.445 337.368C312.617 333.678 310.467 328.672 310.467 323.451V105.119C310.467 99.8989 312.617 94.8928 316.445 91.2017C320.273 87.5107 325.465 85.4371 330.878 85.4371H382.894C383.534 85.4371 384.147 85.6824 384.6 86.1189C385.054 86.5555 385.308 87.1476 385.308 87.765C385.308 88.3824 385.054 88.9746 384.6 89.4111C384.147 89.8477 383.534 90.093 382.894 90.093H330.878C326.745 90.093 322.782 91.6761 319.86 94.4939C316.937 97.3118 315.295 101.134 315.295 105.119V323.804C315.295 327.79 316.937 331.612 319.86 334.43C322.782 337.247 326.745 338.83 330.878 338.83H382.894C383.534 338.83 384.147 339.075 384.6 339.512C385.054 339.948 385.308 340.541 385.308 341.158C385.308 341.776 385.054 342.367 384.6 342.804C384.147 343.24 383.534 343.485 382.894 343.485V343.134Z" fill="#3E3126"/>
<path d="M658.917 343.134H315.075C309.661 343.134 304.47 341.059 300.642 337.368C296.814 333.678 294.664 328.672 294.664 323.451V105.119C294.663 99.9354 296.784 94.961 300.564 91.276C304.345 87.591 309.48 85.4928 314.855 85.4371H658.698C664.112 85.4371 669.303 87.5107 673.131 91.2017C676.958 94.8928 679.108 99.8989 679.108 105.119V323.804C679.014 328.926 676.852 333.811 673.081 337.419C669.311 341.03 664.23 343.08 658.917 343.134ZM314.855 90.093C310.723 90.093 306.759 91.6761 303.837 94.4939C300.914 97.3118 299.273 101.134 299.273 105.119V323.804C299.273 327.79 300.914 331.612 303.837 334.43C306.759 337.247 310.723 338.83 314.855 338.83H658.698C662.831 338.83 666.795 337.247 669.717 334.43C672.639 331.612 674.28 327.79 674.28 323.804V105.119C674.282 101.17 672.669 97.38 669.794 94.5681C666.919 91.7562 663.011 90.1486 658.917 90.093H314.855Z" fill="#3E3126"/>
<path opacity="0.6" d="M204.756 291.775H204.682C200.682 291.775 197.44 294.902 197.44 298.759V342.214C197.44 346.071 200.682 349.198 204.682 349.198H204.756C208.756 349.198 211.998 346.071 211.998 342.214V298.759C211.998 294.902 208.756 291.775 204.756 291.775Z" fill="#8647EA"/>
<path d="M520.651 429.747H220.264C213.298 429.747 206.618 427.079 201.692 422.33C196.767 417.581 194 411.139 194 404.422V151.241C194 144.524 196.767 138.083 201.692 133.333C206.618 128.584 213.298 125.915 220.264 125.915H251.795C252.217 125.915 252.636 125.996 253.027 126.152C253.417 126.308 253.772 126.536 254.071 126.825C254.37 127.113 254.607 127.455 254.769 127.832C254.93 128.208 255.014 128.612 255.014 129.019C255.014 129.843 254.675 130.632 254.071 131.214C253.467 131.796 252.649 132.123 251.795 132.123H220.264C215.006 132.123 209.963 134.138 206.245 137.723C202.527 141.308 200.438 146.171 200.438 151.241V404.422C200.438 409.493 202.527 414.356 206.245 417.94C209.963 421.525 215.006 423.54 220.264 423.54H520.651C521.503 423.54 522.323 423.867 522.927 424.448C523.531 425.03 523.87 425.82 523.87 426.644C523.87 427.467 523.531 428.255 522.927 428.838C522.323 429.42 521.503 429.747 520.651 429.747Z" fill="#3E3126"/>
<path d="M235.408 428.619C228.752 428.619 222.37 426.07 217.664 421.532C212.958 416.995 210.314 410.84 210.314 404.422V151.241C210.305 148.061 210.947 144.911 212.205 141.971C213.462 139.031 215.31 136.36 217.642 134.111C219.974 131.862 222.744 130.08 225.793 128.868C228.842 127.655 232.11 127.036 235.408 127.045C235.676 127.045 235.943 127.096 236.191 127.195C236.44 127.294 236.666 127.44 236.856 127.623C237.046 127.807 237.197 128.024 237.3 128.264C237.403 128.504 237.456 128.761 237.456 129.02C237.438 129.538 237.216 130.031 236.836 130.397C236.455 130.764 235.945 130.978 235.408 130.995C232.647 130.986 229.913 131.503 227.361 132.517C224.809 133.532 222.491 135.022 220.539 136.904C218.588 138.786 217.041 141.022 215.99 143.483C214.938 145.943 214.401 148.58 214.411 151.241V404.422C214.411 409.792 216.623 414.942 220.561 418.738C224.498 422.535 229.839 424.668 235.408 424.668C235.676 424.668 235.943 424.719 236.191 424.819C236.44 424.918 236.666 425.064 236.856 425.247C237.046 425.43 237.197 425.648 237.3 425.887C237.403 426.127 237.456 426.384 237.456 426.644C237.438 427.162 237.216 427.654 236.836 428.02C236.455 428.388 235.945 428.601 235.408 428.619Z" fill="#3E3126"/>
<path d="M457.586 146.252H350.922C347.285 146.252 344.338 149.094 344.338 152.601V238.663C344.338 242.17 347.285 245.013 350.922 245.013H457.586C461.223 245.013 464.171 242.17 464.171 238.663V152.601C464.171 149.094 461.223 146.252 457.586 146.252Z" fill="#B29FBF"/>
<path d="M462.635 152.229V238.221C462.635 239.923 461.934 241.557 460.685 242.761C459.438 243.964 457.744 244.64 455.978 244.64H391.087C425.889 221.868 450.784 187.543 461.026 148.208C462.062 149.309 462.634 150.742 462.635 152.229Z" fill="#7C6887"/>
<path d="M457.368 247.674H350.924C348.634 247.674 346.439 246.797 344.819 245.236C343.2 243.675 342.291 241.557 342.291 239.35V153.146C342.291 150.938 343.2 148.821 344.819 147.26C346.439 145.699 348.634 144.822 350.924 144.822H457.368C458.517 144.803 459.66 145.004 460.728 145.413C461.797 145.822 462.77 146.431 463.594 147.205C464.416 147.979 465.073 148.902 465.523 149.922C465.974 150.942 466.211 152.037 466.221 153.146V239.138C466.24 240.265 466.025 241.383 465.588 242.427C465.149 243.471 464.498 244.42 463.672 245.217C462.846 246.013 461.862 246.64 460.779 247.064C459.697 247.486 458.537 247.693 457.368 247.674ZM350.924 148.913C350.328 148.913 349.738 149.026 349.188 149.246C348.637 149.466 348.138 149.788 347.717 150.194C347.296 150.6 346.961 151.082 346.733 151.613C346.506 152.144 346.388 152.712 346.388 153.287V239.138C346.388 239.713 346.506 240.281 346.733 240.812C346.961 241.342 347.296 241.826 347.717 242.231C348.138 242.637 348.637 242.96 349.188 243.179C349.738 243.399 350.328 243.512 350.924 243.512H457.368C458.578 243.512 459.739 243.053 460.602 242.236C461.464 241.417 461.959 240.304 461.977 239.138V153.146C461.921 152.004 461.411 150.927 460.552 150.139C459.694 149.351 458.554 148.912 457.368 148.913H350.924Z" fill="#3E3126"/>
</g>
</svg>
