<svg width="313" height="362" viewBox="0 0 313 362" fill="none" xmlns="http://www.w3.org/2000/svg">
<path d="M90.4109 136.56H63.4294C62.6783 136.56 61.9346 136.4 61.2411 136.089C60.5472 135.778 59.9167 135.322 59.3862 134.748C58.8554 134.173 58.4348 133.491 58.1478 132.741C57.8612 131.99 57.714 131.185 57.7151 130.373V60.2281C57.7151 59.4168 57.863 58.6134 58.15 57.8639C58.4374 57.1148 58.8583 56.4339 59.3892 55.8602C59.9197 55.2866 60.5497 54.8319 61.2429 54.522C61.9361 54.212 62.679 54.0525 63.4294 54.0533H107.974C108.726 54.0505 109.471 54.2084 110.166 54.5172C110.861 54.8263 111.493 55.2807 112.026 55.8543C112.558 56.4279 112.981 57.1096 113.269 57.8599C113.558 58.6106 113.707 59.4152 113.707 60.2281V79.1476" stroke="#CCDDE2" stroke-width="4.5" stroke-miterlimit="10"/>
<path d="M106.62 62.553H65.3661C63.7872 62.553 62.5071 63.9371 62.5071 65.6444V73.9733C62.5071 75.6805 63.7872 77.0647 65.3661 77.0647H106.62C108.199 77.0647 109.479 75.6805 109.479 73.9733V65.6444C109.479 63.9371 108.199 62.553 106.62 62.553Z" stroke="#CCDDE2" stroke-width="4.5" stroke-miterlimit="10"/>
<path d="M85.7037 68.6642C86.4699 68.6642 87.0908 67.9925 87.0908 67.1644C87.0908 66.3359 86.4699 65.6646 85.7037 65.6646C84.9375 65.6646 84.3167 66.3359 84.3167 67.1644C84.3167 67.9925 84.9375 68.6642 85.7037 68.6642Z" fill="#D7E8F0"/>
<path d="M81.8264 73.9573C81.794 73.3857 81.8696 72.8129 82.0496 72.274C82.2296 71.735 82.5096 71.2416 82.8726 70.8244C83.2353 70.4071 83.6735 70.0745 84.1597 69.8471C84.6459 69.6197 85.1701 69.5024 85.6999 69.5024C86.2296 69.5024 86.7539 69.6197 87.2401 69.8471C87.7263 70.0745 88.1645 70.4071 88.5275 70.8244C88.8902 71.2416 89.1702 71.735 89.3502 72.274C89.5302 72.8129 89.6062 73.3857 89.5734 73.9573H81.8264Z" fill="#D7E8F0"/>
<path d="M85.9875 92.6179C84.5086 92.6179 83.0629 93.0922 81.8333 93.9805C80.6034 94.8693 79.645 96.1318 79.0791 97.6093C78.5132 99.0868 78.3649 100.713 78.6534 102.281C78.9422 103.85 79.6542 105.29 80.7 106.421C81.7459 107.552 83.078 108.322 84.5285 108.634C85.979 108.946 87.4827 108.785 88.8491 108.174C90.2155 107.562 91.3834 106.525 92.205 105.196C93.0265 103.866 93.4652 102.303 93.4652 100.703C93.4655 99.6416 93.2726 98.5901 92.8971 97.6089C92.5211 96.6276 91.9704 95.7361 91.2761 94.9849C90.5815 94.2342 89.757 93.6387 88.8498 93.2326C87.9423 92.8261 86.9695 92.6175 85.9875 92.6179ZM85.9875 106.834C85.7285 106.788 85.4936 106.644 85.3239 106.428C85.1542 106.212 85.0608 105.937 85.0608 105.654C85.0608 105.37 85.1542 105.096 85.3239 104.879C85.4936 104.663 85.7285 104.519 85.9875 104.473C86.1458 104.445 86.3081 104.454 86.463 104.501C86.6176 104.547 86.7611 104.629 86.8836 104.741C87.0061 104.854 87.1046 104.994 87.1721 105.151C87.2396 105.309 87.2742 105.48 87.2742 105.654C87.2742 105.827 87.2396 105.999 87.1721 106.157C87.1046 106.314 87.0061 106.454 86.8836 106.566C86.7611 106.678 86.6176 106.761 86.463 106.807C86.3081 106.854 86.1458 106.863 85.9875 106.834ZM87.3709 97.7437C87.1927 99.5319 86.8884 101.303 86.4597 103.041C86.4147 103.134 86.3472 103.211 86.2642 103.266C86.1812 103.32 86.0864 103.349 85.9894 103.349C85.8923 103.349 85.7975 103.32 85.7145 103.266C85.6315 103.211 85.564 103.134 85.519 103.041C85.1778 101.76 84.9162 100.455 84.7369 99.1358C84.5857 98.1785 84.0692 96.6228 84.5635 95.6894C84.9989 94.8557 86.231 94.756 86.943 95.1908C87.8173 95.7293 87.4742 96.8701 87.3709 97.7437Z" fill="#D7E8F0"/>
<path d="M67.2031 83.543H103.728" stroke="#CCDDE2" stroke-width="4.5" stroke-miterlimit="10"/>
<path d="M67.2031 87.4324H103.728" stroke="#CCDDE2" stroke-width="4.5" stroke-miterlimit="10"/>
<path d="M67.2031 112.463H103.728" stroke="#CCDDE2" stroke-width="4.5" stroke-miterlimit="10"/>
<path d="M75.688 116.142H95.2435" stroke="#CCDDE2" stroke-width="4.5" stroke-miterlimit="10"/>
<path d="M292.85 121.57H236.861C232.2 121.57 228.421 125.657 228.421 130.697V234.094C228.421 239.135 232.2 243.221 236.861 243.221H292.85C297.511 243.221 301.29 239.135 301.29 234.094V130.697C301.29 125.657 297.511 121.57 292.85 121.57Z" fill="#3FBDF1"/>
<path d="M216.317 121.57H177.332C172.67 121.57 168.891 125.657 168.891 130.697V234.094C168.891 239.135 172.67 243.221 177.332 243.221H216.317C220.979 243.221 224.758 239.135 224.758 234.094V130.697C224.758 125.657 220.979 121.57 216.317 121.57Z" fill="#3FBDF1"/>
<path d="M172.119 305.081H300.888C303.113 305.08 305.247 304.124 306.82 302.423C308.394 300.722 309.279 298.416 309.281 296.01V123.174C309.281 121.982 309.065 120.802 308.643 119.7C308.221 118.599 307.603 117.599 306.824 116.756C306.044 115.913 305.119 115.245 304.101 114.789C303.082 114.333 301.99 114.098 300.888 114.099H213.377L190.505 114.247H190.439L178.874 114.733H178.837L175.793 114.861H175.524L175.299 116.82L174.856 120.461C174.861 120.468 174.864 120.477 174.864 120.485C174.864 120.494 174.861 120.502 174.856 120.509L171.256 126.277L170.518 127.446L168.485 141.511V141.579C168.441 141.559 168.397 141.531 168.342 141.499C168.297 141.471 168.255 141.439 168.216 141.403C167.532 140.847 167.018 140.081 166.741 139.205C166.065 137.355 165.903 134.901 165.896 132.955L165.453 143.641V143.681L164.837 157.957L164.686 161.791C164.973 161.236 165.387 160.439 165.866 159.485L164.335 170.064L164.018 177.687L163.229 196.949L163.199 197.667V197.942L162.992 202.633V202.741C162.992 202.741 162.402 216.507 162.402 216.527L162.347 217.803L161.664 223.376L159.672 238.969V296.01C159.673 297.635 160.078 299.231 160.845 300.628C161.612 302.025 162.714 303.174 164.033 303.952C166.53 305.416 169.293 305.221 172.038 305.121C172.776 305.097 173.514 305.061 174.251 305.017" fill="#3FBDF1"/>
<path d="M167.231 302.106C167.179 302.106 167.124 302.054 167.061 302.034C166.36 301.763 165.697 301.386 165.091 300.917C164.029 300.101 163.163 299.02 162.566 297.766C161.97 296.513 161.661 295.123 161.664 293.713V217.589L159.672 218.622L159.547 218.689L159.277 217.967L157.946 214.377L157.577 213.384L154.209 204.293C154.209 204.293 160.605 176.307 164.837 157.958C166.386 151.221 167.648 145.78 168.179 143.494C168.341 142.812 168.437 142.413 168.456 142.345C168.457 142.329 168.457 142.313 168.456 142.297C168.467 142.161 168.448 142.025 168.4 141.899C168.348 141.751 168.285 141.609 168.212 141.472C168.204 141.443 168.191 141.416 168.175 141.392C167.737 140.585 167.244 139.814 166.7 139.086L165.999 129.7L166.113 129.605L166.644 129.146L170.274 126.035L171.119 123.617L172.776 118.918L173.513 116.824H175.269H175.719H178.896L190.634 116.784H191.641L213.912 116.641H299.125C300.198 116.641 301.26 116.869 302.251 117.314C303.243 117.758 304.143 118.409 304.901 119.23C305.659 120.051 306.261 121.026 306.67 122.098C307.08 123.171 307.29 124.32 307.288 125.48V293.713C307.29 294.874 307.08 296.022 306.67 297.095C306.261 298.167 305.659 299.142 304.901 299.963C304.143 300.784 303.243 301.435 302.251 301.879C301.26 302.324 300.198 302.553 299.125 302.553H172.274" fill="#3FBDF1"/>
<path d="M175.756 114.334L178.774 114.315H178.837L190.42 114.247H190.501L213.373 114.099H300.888C303.114 114.1 305.248 115.056 306.821 116.758C308.395 118.46 309.279 120.767 309.281 123.174V296.01C309.279 298.416 308.394 300.722 306.82 302.423C305.247 304.124 303.113 305.08 300.888 305.081H167.836C165.668 305.081 163.588 304.15 162.056 302.492C160.523 300.834 159.661 298.586 159.661 296.242V277.37" stroke="black" stroke-width="4.5" stroke-miterlimit="10"/>
<path d="M292.85 252.155H177.332C172.67 252.155 168.891 256.241 168.891 261.281V286.655C168.891 291.696 172.67 295.782 177.332 295.782H292.85C297.511 295.782 301.29 291.696 301.29 286.655V261.281C301.29 256.241 297.511 252.155 292.85 252.155Z" fill="white"/>
<path d="M254.657 261.874H180.036C178.457 261.874 177.177 263.258 177.177 264.965V283.601C177.177 285.308 178.457 286.693 180.036 286.693H254.657C256.236 286.693 257.516 285.308 257.516 283.601V264.965C257.516 263.258 256.236 261.874 254.657 261.874Z" fill="#3FBDF1"/>
<path d="M241.27 272.328C242.582 272.328 243.646 271.178 243.646 269.759C243.646 268.34 242.582 267.19 241.27 267.19C239.958 267.19 238.894 268.34 238.894 269.759C238.894 271.178 239.958 272.328 241.27 272.328Z" fill="white"/>
<path d="M234.637 281.374C234.637 279.47 235.336 277.643 236.582 276.297C237.827 274.95 239.516 274.194 241.277 274.194C243.038 274.194 244.727 274.95 245.973 276.297C247.218 277.643 247.917 279.47 247.917 281.374H234.637Z" fill="white"/>
<path d="M277.784 261.877C275.47 261.874 273.208 262.614 271.283 264.002C269.359 265.39 267.858 267.364 266.972 269.675C266.085 271.985 265.852 274.529 266.302 276.982C266.753 279.436 267.866 281.691 269.501 283.46C271.137 285.23 273.221 286.435 275.49 286.923C277.758 287.411 280.111 287.161 282.248 286.204C284.385 285.247 286.212 283.625 287.497 281.545C288.782 279.465 289.468 277.019 289.467 274.518C289.467 272.858 289.166 271.214 288.579 269.681C287.992 268.148 287.131 266.754 286.047 265.58C284.962 264.407 283.674 263.475 282.256 262.84C280.838 262.205 279.318 261.877 277.784 261.877ZM277.784 284.107C277.553 284.119 277.322 284.079 277.105 283.992C276.888 283.904 276.69 283.77 276.523 283.597C276.355 283.424 276.222 283.216 276.131 282.986C276.04 282.756 275.993 282.508 275.993 282.258C275.993 282.008 276.04 281.76 276.131 281.53C276.222 281.3 276.355 281.092 276.523 280.919C276.69 280.746 276.888 280.612 277.105 280.525C277.322 280.437 277.553 280.397 277.784 280.409C278.224 280.431 278.639 280.635 278.943 280.98C279.247 281.324 279.416 281.782 279.416 282.258C279.416 282.734 279.247 283.192 278.943 283.536C278.639 283.88 278.224 284.085 277.784 284.107ZM279.935 269.886C279.566 272.631 279.267 275.511 278.511 278.167C278.341 278.81 277.223 278.81 277.035 278.167C276.499 276.165 276.089 274.126 275.81 272.064C275.574 270.569 274.766 268.135 275.541 266.683C276.223 265.379 278.149 265.223 279.256 265.886C280.635 266.731 280.082 268.522 279.935 269.886Z" fill="#3FBDF1"/>
<path d="M290.201 209.51C289.634 214.795 287.611 219.774 284.394 223.8C281.177 227.826 276.914 230.713 272.16 232.087C267.406 233.46 262.38 233.255 257.735 231.5C253.09 229.745 249.04 226.52 246.111 222.244C243.183 217.969 241.511 212.839 241.313 207.523C241.115 202.207 242.399 196.948 245 192.432C247.601 187.915 251.398 184.348 255.898 182.195C260.397 180.041 265.392 179.4 270.232 180.355C270.445 180.399 270.647 180.491 270.826 180.623C271.006 180.755 271.158 180.925 271.273 181.123C271.389 181.321 271.466 181.543 271.5 181.774C271.533 182.006 271.522 182.242 271.468 182.469L270.985 184.507L266.654 202.793C266.585 203.084 266.588 203.391 266.663 203.68C266.738 203.97 266.882 204.234 267.081 204.444C267.28 204.655 267.526 204.805 267.796 204.88C268.065 204.955 268.348 204.952 268.617 204.871L285.427 199.789L287.726 199.095C287.93 199.033 288.145 199.016 288.356 199.045C288.566 199.074 288.77 199.148 288.954 199.264C289.137 199.38 289.298 199.534 289.425 199.718C289.553 199.902 289.645 200.112 289.696 200.335C290.357 203.339 290.529 206.444 290.201 209.51Z" fill="white"/>
<path d="M290.78 190.666C290.86 190.889 290.895 191.127 290.884 191.366C290.873 191.605 290.816 191.838 290.716 192.051C290.616 192.264 290.476 192.453 290.305 192.604C290.134 192.755 289.935 192.865 289.722 192.928L288.139 193.407L274.449 197.543C274.181 197.624 273.898 197.627 273.628 197.552C273.358 197.477 273.112 197.327 272.913 197.116C272.714 196.906 272.57 196.642 272.495 196.352C272.42 196.062 272.417 195.756 272.486 195.465L276.024 180.578L276.364 179.15C276.417 178.923 276.513 178.71 276.646 178.525C276.778 178.34 276.945 178.187 277.135 178.074C277.325 177.962 277.534 177.893 277.75 177.872C277.966 177.852 278.183 177.879 278.389 177.953C281.174 178.993 283.721 180.665 285.858 182.858C287.996 185.051 289.674 187.713 290.78 190.666Z" fill="white"/>
<path d="M265.488 145.36C269.213 145.36 272.232 142.095 272.232 138.068C272.232 134.041 269.213 130.776 265.488 130.776C261.764 130.776 258.745 134.041 258.745 138.068C258.745 142.095 261.764 145.36 265.488 145.36Z" fill="#D7E8F0"/>
<path d="M290.364 154.183H241.274V155.643H290.364V154.183Z" fill="#D7E8F0"/>
<path d="M290.364 159.584H241.274V161.044H290.364V159.584Z" fill="#D7E8F0"/>
<path d="M290.364 164.508H241.274V165.968H290.364V164.508Z" fill="#D7E8F0"/>
<path d="M216.162 184.683H177.708V186.143H216.162V184.683Z" fill="#D7E8F0"/>
<path d="M216.162 190.574H177.708V192.034H216.162V190.574Z" fill="#D7E8F0"/>
<path d="M216.162 196.463H177.708V197.923H216.162V196.463Z" fill="#D7E8F0"/>
<path d="M216.162 202.354H177.708V203.814H216.162V202.354Z" fill="#D7E8F0"/>
<path d="M216.162 208.246H177.708V209.706H216.162V208.246Z" fill="#D7E8F0"/>
<path d="M172.433 143.199C172.433 143.199 184.119 163.099 197.437 169.354C210.754 175.609 214.915 178.373 220.01 176.135C225.104 173.898 234.884 170.762 241.775 148.612C248.666 126.461 251.95 114.802 252.193 109.436C252.436 104.071 238.735 108.479 238.735 108.479C238.735 108.479 231.357 131.994 215.192 142.489L192.169 116.194L172.433 143.199Z" fill="white"/>
<path d="M158.776 173.782L168.183 176.542C168.183 176.542 157.26 192.829 166.973 209.882C176.686 226.934 196.688 261.339 196.688 261.339L234.973 327.156L199.167 321.759L172.433 290.095L158.783 275.38L141.677 217.64L158.776 173.782Z" fill="white"/>
<path d="M5.17969 257.948C6.02551 258.443 7.00458 258.603 7.94764 258.399C8.8907 258.196 9.73855 257.643 10.3443 256.835L24.2667 238.379L35.4997 223.133L26.303 217.549C25.3505 216.967 24.2231 216.818 23.1692 217.134C22.1149 217.45 21.2199 218.206 20.6809 219.236L3.54177 251.785C3.26874 252.305 3.09443 252.878 3.0291 253.471C2.96377 254.064 3.0087 254.666 3.16128 255.24C3.31386 255.814 3.57102 256.349 3.91764 256.814C4.26426 257.279 4.69333 257.665 5.17969 257.948Z" fill="#2E2E2E"/>
<path d="M217.099 345.007L228.687 357.333C229.687 358.399 231.034 358.998 232.438 359H261.416C262.315 359.004 263.195 358.725 263.95 358.197C264.704 357.669 265.301 356.915 265.665 356.026C266.03 355.138 266.148 354.154 266.005 353.195C265.861 352.236 265.463 351.342 264.857 350.623C264.096 349.702 263.043 349.121 261.906 348.996L245.833 347.213L217.099 345.007Z" fill="#2E2E2E"/>
<path d="M111.283 190.841C111.283 190.841 133.694 197.582 148.635 199.593C163.575 201.603 162.528 194.902 162.528 194.902L164.354 186.437C169.149 177.989 171.935 160.015 171.935 160.015L173.86 145.954L176.671 151.303L185.757 161.199L185.868 161.295C185.591 156.568 185.802 149.927 186.82 140.88C189.166 119.938 196.935 122.367 196.935 122.367L195.795 121.015C190.428 111.358 173.292 101.15 167.818 98.7086C162.343 96.2674 164.686 99.7258 165.383 102.299C166.08 104.872 164.088 112.111 156.109 108.426C148.129 104.74 147.727 96.7222 147.727 96.7222H144.02C121.277 99.678 109.712 112.794 109.712 112.794C133.871 118.956 128.327 141.115 128.327 141.115L126.135 143.281C117.558 151.323 116.961 159.077 117.702 162.308C118.444 165.539 123.734 169.887 133.285 172.408C142.836 174.929 144.573 174.933 146.731 170.47C148.889 166.006 151.405 165.455 154.847 164.785C158.289 164.115 162.506 166.76 161.543 168.842C160.58 170.924 159.883 169.105 162.28 174.73C164.678 180.354 163.564 183.214 157.116 188.396C150.667 193.577 121.996 190.669 121.996 190.669C108.284 186.569 111.283 190.841 111.283 190.841Z" fill="#2E2E2E"/>
<path d="M163.701 96.8549V97.7046V97.92C170.111 99.652 176.147 102.717 181.474 106.943C182.338 107.625 183.179 108.319 184.009 109.049C184.031 106.117 183.799 103.173 182.924 100.397C182.216 98.0145 180.882 95.9068 179.084 94.3299C177.501 92.9657 175.631 92.0921 173.75 91.3023C171.868 90.5125 170.02 89.8185 168.294 88.7534C166.839 87.893 165.568 86.7103 164.564 85.283C164.212 84.7669 163.993 84.1594 163.928 83.5219C163.863 82.8845 163.955 82.2399 164.195 81.6531C164.025 81.6403 163.858 81.6044 163.697 81.5454L163.701 96.8549Z" fill="#3FBDF1"/>
<path d="M163.701 96.8549V97.7046V97.92C170.111 99.652 176.147 102.717 181.474 106.943C182.338 107.625 183.179 108.319 184.009 109.049C184.031 106.117 183.799 103.173 182.924 100.397C182.216 98.0145 180.882 95.9068 179.084 94.3299C177.501 92.9657 175.631 92.0921 173.75 91.3023C171.868 90.5125 170.02 89.8185 168.294 88.7534C166.839 87.893 165.568 86.7103 164.564 85.283C164.212 84.7669 163.993 84.1594 163.928 83.5219C163.863 82.8845 163.955 82.2399 164.195 81.6531C164.025 81.6403 163.858 81.6044 163.697 81.5454L163.701 96.8549Z" fill="#3FBDF1"/>
<path d="M75.1383 163.08C77.5469 164.943 80.2244 166.363 83.0624 167.28C84.2831 167.687 85.5233 168.022 86.7772 168.285C81.8228 155.66 85.5303 139.05 101.164 121.339C103.841 118.302 106.691 115.448 109.697 112.795C114.556 108.523 118.872 105.34 123.963 102.779C126.242 101.642 128.582 100.655 130.972 99.8232C135.209 98.2982 139.582 97.2591 144.02 96.7238C145.027 96.5922 146.023 96.4964 147.03 96.4366C146.784 94.5662 146.833 92.6646 147.174 90.8122C148.104 85.7263 149.723 82.8024 152.667 78.7935C154.511 76.2685 157.393 70.2373 153.552 68.1551C151.129 66.8507 150.907 64.1661 152.047 62.5706C153.01 61.1824 154.958 60.5482 157.359 62.1717C159.019 63.3205 160.989 63.3923 162.893 62.8298C164.371 61.8984 165.653 60.6431 166.656 59.1441C169.445 54.8241 169.544 48.2782 165.18 45.107C162.801 43.3718 159.768 42.953 156.924 43.2881C155.651 43.4392 154.395 43.736 153.18 44.1736C153.174 44.1708 153.169 44.1696 153.163 44.1696C153.157 44.1696 153.152 44.1708 153.146 44.1736C147.982 47.1773 144.311 52.7299 142.54 58.9885C141.5 62.6862 140.327 66.3481 138.955 69.9381C137.826 72.8819 137.04 76.46 134.528 78.4704C133.478 79.3101 132.286 79.92 131.02 80.2655C126.272 83.5204 119.687 81.6416 114.497 80.9476C110.347 80.3341 106.122 80.7932 102.168 82.2878C97.741 84.7091 93.9339 88.5744 90.8462 93.6004C85.7443 101.917 91.145 113.908 82.6123 120.466C80.03 122.44 77.0788 123.637 74.2567 125.169C70.2282 127.383 66.9745 130.53 65.7719 135.377C63.3962 145.153 67.6238 157.18 75.1383 163.08Z" fill="#3FBDF1"/>
<path d="M283.771 358.999H81.8928" stroke="black" stroke-width="4.5" stroke-miterlimit="10"/>
<path d="M171.104 55.2056C171.623 56.368 172.067 57.5674 172.433 58.7956C172.964 60.7901 172.388 62.0267 173.196 63.9294C173.473 64.5876 173.871 65.7005 174.303 66.8253C174.425 66.5621 174.535 66.3467 174.602 66.1791C177.767 58.5563 173.606 54.8825 171.603 53.626C171.475 54.1661 171.308 54.6942 171.104 55.2056Z" fill="#3FBDF1"/>
<path d="M171.104 55.2056C171.623 56.368 172.067 57.5674 172.433 58.7956C172.964 60.7901 172.388 62.0267 173.196 63.9294C173.473 64.5876 173.871 65.7005 174.303 66.8253C174.425 66.5621 174.535 66.3467 174.602 66.1791C177.767 58.5563 173.606 54.8825 171.603 53.626C171.475 54.1661 171.308 54.6942 171.104 55.2056Z" fill="#3FBDF1"/>
<path d="M100.969 183.806C99.0357 200.288 100.6 228.881 131.816 250.756C137.435 254.693 142.492 260.253 147.447 265.06C160.959 278.264 173.814 292.234 185.956 306.912C193.39 315.823 200.978 325.189 208.515 334.212C212.378 338.823 216.284 343.392 220.231 347.918C223.138 351.233 227.749 358.995 232.423 358.995H261.146C263.728 358.995 266.075 356.71 266.038 353.906C266.017 352.694 265.593 351.531 264.843 350.631C264.081 349.709 263.028 349.129 261.891 349.003L245.818 347.22L168.161 213.679C164.154 206.786 160.602 195.441 163.701 188.01C175.505 159.744 174.491 132.348 174.491 132.348" stroke="black" stroke-width="4.5" stroke-miterlimit="10"/>
<path d="M141.176 259.348C137.789 272.212 132.322 285.276 127.807 293.501C126.17 296.504 124.014 299.137 121.454 301.255C112.202 308.918 99.1244 308.1 90.2523 299.935L46.1279 259.324L24.2704 238.378L10.3481 256.835C9.68994 257.701 8.75514 258.268 7.72867 258.425C6.70224 258.582 5.65858 258.318 4.80376 257.684C3.94894 257.05 3.34508 256.091 3.11145 255C2.87783 253.907 3.0314 252.76 3.54182 251.785L20.6847 219.243C21.2237 218.213 22.1186 217.457 23.173 217.141C24.2269 216.825 25.3543 216.974 26.3068 217.556L35.5035 223.14L88.1975 255.051C89.074 255.582 90.0546 255.88 91.0584 255.92C92.0625 255.961 93.0608 255.744 93.9716 255.285C94.8824 254.827 95.68 254.142 96.2979 253.286C96.9162 252.43 97.3374 251.427 97.5271 250.361L103.769 214.971" stroke="black" stroke-width="4.5" stroke-miterlimit="10"/>
<path d="M163.701 79.1752V96.7265V97.5761V97.7915C165.372 100.424 166.213 104.174 164.619 106.966C162.483 110.712 157.769 110.089 154.781 107.995C153.901 107.38 153.062 106.7 152.269 105.961C149.609 103.462 147.887 99.997 147.429 96.2199C147.183 94.3495 147.232 92.448 147.572 90.5955C148.509 85.5136 150.125 82.5937 153.073 78.5729C154.917 76.0598 157.795 70.0206 153.951 67.9384C149.446 65.5091 152.567 58.4008 157.758 61.955C161.786 64.7193 167.574 61.2729 169.965 57.5672C172.754 53.2471 172.853 46.7013 168.489 43.5301C166.11 41.7949 163.077 41.3761 160.233 41.7112C151.568 42.7403 145.4 50.064 142.932 58.7758C141.891 62.4735 140.718 66.1354 139.346 69.7254C138.217 72.6693 137.431 76.2473 134.919 78.2578C130.123 82.123 123.21 80.1006 117.798 79.3826C106.532 77.8868 97.4459 83.2838 91.2373 93.3878C86.1354 101.705 91.5361 113.695 83.0034 120.253C80.4211 122.228 77.4699 123.424 74.6478 124.956C70.6194 127.17 67.3656 130.317 66.1815 135.164C63.791 144.929 68.026 156.955 75.5331 162.855C78.975 165.56 83.0034 167.175 87.1868 168.061" stroke="black" stroke-width="4.5" stroke-miterlimit="10"/>
<path d="M185.942 111.322C185.964 111.099 185.971 110.884 185.982 110.672C186.171 106.815 186.148 102.818 184.986 99.1043C184.273 96.7245 182.938 94.6184 181.142 93.0412C179.556 91.6809 177.686 90.7994 175.812 90.0096C173.938 89.2198 172.079 88.5337 170.356 87.4646C168.897 86.6078 167.625 85.4231 166.626 83.9903C166.276 83.4757 166.057 82.8702 165.993 82.2347C165.928 81.5997 166.019 80.9571 166.257 80.3723" stroke="black" stroke-width="4.5" stroke-miterlimit="10"/>
<path d="M160.207 75.2181C161.513 77.2365 163.284 79.4145 165.516 80.2003C168.404 81.2175 170.348 78.5649 171.385 75.984C172.005 74.4483 172.433 72.8128 172.934 71.2252C173.097 70.7027 173.196 70.4514 173.75 70.4274C174.303 70.4035 174.886 70.5232 175.454 70.5232C175.495 70.522 175.534 70.5092 175.568 70.4865C175.603 70.4637 175.631 70.4314 175.65 70.3927C175.669 70.354 175.679 70.311 175.677 70.2671C175.676 70.2236 175.664 70.1809 175.642 70.1442C174.879 68.8877 173.739 65.4612 173.163 64.089C172.363 62.1863 172.942 60.9537 172.403 58.9553C172.036 57.7283 171.596 56.5288 171.083 55.3652" stroke="black" stroke-width="4.5" stroke-miterlimit="10"/>
<path d="M171.935 51.6755C171.935 51.6755 179.811 54.9425 175.742 64.7592C175.491 65.3536 174.875 66.5941 174.583 67.1526" stroke="black" stroke-width="4.5" stroke-miterlimit="10"/>
<path d="M256.889 23.686C256.889 23.686 256.933 23.71 257.022 23.7459L256.889 23.686Z" fill="#3FBDF1"/>
<path d="M171.499 75.7008C170.869 75.7945 170.228 75.6362 169.698 75.256C169.167 74.8755 168.784 74.2991 168.618 73.6345" stroke="black" stroke-width="4.5" stroke-miterlimit="10"/>
<path d="M172.831 62.5541C171.2 61.1181 169.411 62.953 168.319 64.2853" stroke="black" stroke-width="4.5" stroke-miterlimit="10"/>
<path d="M147.439 96.2236C141.971 96.5982 136.57 97.7334 131.37 99.6023C122.885 102.61 117.042 106.491 110.11 112.574C107.105 115.232 104.255 118.09 101.577 121.131C85.9286 138.841 82.2285 155.459 87.1903 168.08C91.2224 178.364 100.519 184.742 110.044 187.993C116.275 190.115 122.767 191.029 129.282 191.232C137.047 191.471 144.879 191.152 152.523 189.557C155.743 188.887 159.455 188.336 161.377 185.101C163.298 181.866 163.461 177.502 162.033 174.036C160.694 170.809 157.079 167.338 153.81 169.871C153.448 170.154 153.15 170.522 152.938 170.948C152.727 171.374 152.607 171.846 152.589 172.328" stroke="black" stroke-width="4.5" stroke-miterlimit="10"/>
<path d="M141.533 117.564C141.939 130.792 131.573 138.167 131.573 138.167C128.135 141.179 124.793 144.414 121.982 148.119C120.185 150.485 118.518 153.134 117.691 156.097C117.073 158.118 117.084 160.302 117.721 162.316C118.425 164.178 119.589 165.796 121.085 166.991C123.881 169.356 127.283 170.581 130.654 171.642C134.37 172.792 138.154 173.663 141.98 174.251C144.193 174.594 145.126 173.852 146.137 171.782C147.052 169.907 147.801 167.737 149.494 166.512C151.841 164.809 154.991 164.414 157.706 165.116C161.893 166.193 162.963 169.783 159.551 170.509" stroke="black" stroke-width="4.5" stroke-miterlimit="10"/>
<path d="M138.977 207.304L75.3595 190.682L60.2197 258.43L122.074 275.056L124.058 274.07L138.977 207.304Z" fill="white"/>
<path d="M109.623 197.779C112.641 174.938 119.181 169.29 123.439 168.161L123.158 167.994C110.306 162.585 101.393 189.346 99.5005 195.605L109.623 197.779Z" fill="#D7E8F0"/>
<path d="M109.446 199.589C112.464 176.749 119.181 169.273 123.439 168.16L123.158 167.993C110.306 162.584 101.024 190.634 99.1243 196.889L109.446 199.589Z" fill="#D7E8F0"/>
<path d="M123.158 167.993C108.624 161.882 99.1243 196.889 99.1243 196.889L109.454 199.589C115.456 164.487 128.334 170.869 128.334 170.869C127.88 170.721 123.158 167.993 123.158 167.993Z" stroke="black" stroke-width="4.5" stroke-miterlimit="10"/>
<path d="M74.6508 193.911L60.2219 258.452L110.411 271.571L124.84 207.03L74.6508 193.911Z" fill="#3FBDF1"/>
<path d="M75.417 190.494L60.2234 258.455L113.07 272.269L128.263 204.308L75.417 190.494Z" fill="white"/>
<path d="M75.6658 195.663L62.5801 254.194C62.2094 255.853 63.1527 257.524 64.6873 257.925L109.319 269.592C110.854 269.993 112.399 268.973 112.77 267.313L125.855 208.782C126.226 207.123 125.283 205.452 123.748 205.051L79.1165 193.385C77.5819 192.983 76.0369 194.003 75.6658 195.663Z" fill="#3FBDF1"/>
<path d="M75.3699 190.706L60.2239 258.453L113.071 272.267L128.216 204.52L75.3699 190.706Z" stroke="black" stroke-width="4.5" stroke-miterlimit="10"/>
<path d="M128.439 204.574L113.292 272.321L123.842 275.079L138.988 207.331L128.439 204.574Z" fill="white"/>
<path d="M128.439 204.574L113.292 272.321L123.842 275.079L138.988 207.331L128.439 204.574Z" stroke="black" stroke-width="4.5" stroke-miterlimit="10"/>
<path d="M123.837 275.056L120.439 265.607L113.286 272.3" stroke="black" stroke-width="4.5" stroke-miterlimit="10"/>
<path d="M133.705 205.929L120.44 265.607" stroke="black" stroke-width="4.5" stroke-miterlimit="10"/>
<path d="M250.079 96.0288C249.88 96.0647 249.71 96.1006 249.493 96.1485C247.497 96.525 245.605 97.3842 243.959 98.6615C242.155 100.169 240.517 102.79 239.72 105.044C238.515 108.466 237.191 111.833 235.747 115.144C233.568 120.248 230.975 125.133 228 129.743C224.913 134.434 221.205 139.189 216.535 142.109C215.949 142.492 215.331 142.817 214.69 143.078C213.905 143.437 202.849 129.683 201.631 128.152C196.751 122.013 191.704 115.934 185.982 110.68C184.533 109.34 183.031 108.047 181.489 106.839C176.158 102.609 170.118 99.5403 163.704 97.8039" stroke="black" stroke-width="4.5" stroke-miterlimit="10"/>
<path d="M269.97 95.5254C269.992 95.5314 270.015 95.5314 270.037 95.5254C275.15 96.1716 273.146 102.131 269.55 101.94C265.577 101.724 261.615 101.94 257.653 102.011C256.56 101.973 255.473 102.189 254.465 102.646C252.473 103.675 252.285 105.972 251.986 108.055C251.588 110.783 251.134 113.511 250.599 116.216C249.559 121.577 248.275 126.866 246.803 132.108C245.851 135.506 244.8 138.889 243.693 142.236C240.462 152.096 236.389 162.555 229.539 170.158C225.754 174.371 220.796 177.482 215.207 177.027C207.338 176.393 199.768 172.121 193.095 167.262C193.067 167.242 193.04 167.218 193.017 167.191C190.526 165.378 188.139 163.403 185.868 161.279C185.868 161.279 176.671 152.424 173.86 145.938" stroke="black" stroke-width="4.5" stroke-miterlimit="10"/>
<path d="M284.509 90.1659V90.7244C284.509 94.5777 281.639 95.2398 279.16 95.3036L231.177 96.5003C229.074 96.5602 227.307 94.5697 227.262 92.0846V91.9809C227.262 89.5436 228.915 87.5173 230.992 87.4614C230.992 87.4614 257.833 86.6437 278.621 86.0254C279.016 87.3856 279.982 88.4387 281.181 89.2604C282.183 89.9118 283.341 90.2269 284.509 90.1659Z" stroke="black" stroke-width="4.5" stroke-miterlimit="10"/>
<path d="M310 35.2651C310 35.9002 309.861 36.526 309.594 37.0921L288.15 84.6601C287.898 85.2097 287.539 85.694 287.098 86.0793C286.657 86.4651 286.144 86.7427 285.594 86.8939C284.707 87.1364 283.77 87.0315 282.949 86.5987C282.292 86.2493 281.739 85.708 281.352 85.0362C280.965 84.3641 280.761 83.5886 280.761 82.7972C280.764 82.1642 280.898 81.5403 281.152 80.9703L302.607 33.3983C302.997 32.5487 303.641 31.8666 304.435 31.4621C305.228 31.058 306.124 30.9555 306.978 31.1709C307.833 31.3867 308.594 31.908 309.14 32.6504C309.686 33.3927 309.984 34.3126 309.985 35.2611L310 35.2651Z" stroke="black" stroke-width="4.5" stroke-miterlimit="10"/>
<path d="M251.647 25.4814C258.154 25.4814 263.43 19.7771 263.43 12.7406C263.43 5.70417 258.154 0 251.647 0C245.14 0 239.864 5.70417 239.864 12.7406C239.864 19.7771 245.14 25.4814 251.647 25.4814Z" fill="#3FBDF1"/>
<path d="M247.903 17.1242C247.512 16.9661 247.146 16.7441 246.818 16.4661C246.24 15.9946 245.842 15.3098 245.701 14.5419C245.559 13.774 245.684 12.9767 246.051 12.3016C246.29 11.8632 246.62 11.491 247.015 11.2141C247.41 10.9372 247.859 10.7633 248.327 10.7061C248.067 10.0474 248.014 9.31532 248.173 8.6206C248.333 7.92589 248.698 7.30633 249.212 6.85562C249.726 6.40491 250.362 6.14762 251.024 6.12261C251.686 6.09764 252.337 6.3063 252.879 6.71712C254.019 7.57474 254.808 9.08655 255.292 10.4667C255.541 11.1915 255.724 11.941 255.838 12.7045C255.893 13.1034 256.269 15.2973 255.974 15.5207C254.026 16.9806 250.4 18.1534 247.903 17.1242Z" fill="white"/>
<g opacity="0.72">
<path opacity="0.72" d="M241.705 52.0585C245.287 52.0585 248.19 48.9192 248.19 45.046C248.19 41.1731 245.287 38.0334 241.705 38.0334C238.123 38.0334 235.22 41.1731 235.22 45.046C235.22 48.9192 238.123 52.0585 241.705 52.0585Z" fill="#3FBDF1"/>
<path opacity="0.72" d="M242.989 48.0216C242.833 48.2051 242.651 48.3611 242.45 48.4843C242.107 48.7013 241.702 48.7755 241.311 48.6925C240.921 48.6096 240.572 48.3754 240.329 48.0336C240.171 47.8098 240.062 47.5493 240.013 47.2721C239.964 46.9952 239.975 46.7096 240.045 46.438C239.682 46.4404 239.328 46.3155 239.036 46.0822C238.744 45.8484 238.53 45.5189 238.426 45.1428C238.322 44.7662 238.334 44.3637 238.46 43.9956C238.585 43.627 238.818 43.3127 239.123 43.0993C239.815 42.6852 240.603 42.4969 241.392 42.5568C241.786 42.5687 242.178 42.625 242.561 42.7243C242.757 42.7722 243.871 43.0275 243.915 43.2349C244.199 44.619 243.996 46.8648 242.989 48.0216Z" fill="white"/>
</g>
<path d="M278.215 29.7415L271.851 33.4101C269.542 34.7404 268.668 37.843 269.899 40.3389L273.291 47.2206C274.522 49.7169 277.391 50.6619 279.699 49.3312L286.064 45.6629C288.372 44.3322 289.246 41.23 288.015 38.7338L284.623 31.8521C283.392 29.3562 280.523 28.4112 278.215 29.7415Z" fill="#3FBDF1"/>
<path d="M280.765 47.3759L285.372 44.7193C286.333 44.1617 287.051 43.2159 287.368 42.0882C287.686 40.9601 287.579 39.7423 287.069 38.7L284.118 32.7166C283.603 31.6771 282.728 30.9005 281.685 30.5566C280.642 30.2128 279.515 30.3296 278.551 30.8817L278.241 31.0612C277.09 32.7884 275.559 35.7442 277.872 36.6736C281.192 38.0179 280.222 40.0323 278.979 42.6131C277.924 44.7791 277.655 47.3121 280.765 47.3759Z" fill="white"/>
<path d="M273.589 40.132C274.551 40.132 275.331 39.2887 275.331 38.2492C275.331 37.2093 274.551 36.3665 273.589 36.3665C272.628 36.3665 271.848 37.2093 271.848 38.2492C271.848 39.2887 272.628 40.132 273.589 40.132Z" fill="white"/>
<path d="M252.141 71.5564C252.787 71.8954 253.473 72.132 254.181 72.2584C255.481 72.4738 256.81 72.321 258.038 71.8148C259.267 71.3086 260.353 70.4666 261.19 69.3704C261.836 68.5008 262.319 67.4119 262.998 66.5343C263.462 65.8941 264.083 65.4078 264.791 65.1302C265.034 65.0743 265.26 64.9551 265.451 64.7832C265.916 64.2646 265.127 63.8258 264.968 63.407C264.73 62.7312 264.73 61.9845 264.968 61.3088C265.574 59.5325 265.591 57.5839 265.016 55.7953C264.442 54.0067 263.311 52.4889 261.818 51.5008C260.324 50.5124 258.56 50.1151 256.826 50.3759C255.091 50.6372 253.494 51.5407 252.307 52.932C251.134 54.3002 250.43 56.0474 249.699 57.7188C249.05 59.2066 248.36 60.6865 248.002 62.2861C247.172 66.0756 249.046 69.9249 252.141 71.5564Z" fill="#3FBDF1"/>
<path d="M258.73 58.0941C259.637 58.0941 260.372 57.2995 260.372 56.319C260.372 55.3385 259.637 54.5439 258.73 54.5439C257.823 54.5439 257.088 55.3385 257.088 56.319C257.088 57.2995 257.823 58.0941 258.73 58.0941Z" fill="white"/>
<path d="M256.579 62.993C257.486 62.993 258.221 62.1984 258.221 61.2179C258.221 60.2379 257.486 59.4429 256.579 59.4429C255.672 59.4429 254.938 60.2379 254.938 61.2179C254.938 62.1984 255.672 62.993 256.579 62.993Z" fill="white"/>
<path d="M254.561 67.5882C255.468 67.5882 256.203 66.7932 256.203 65.8132C256.203 64.8327 255.468 64.0381 254.561 64.0381C253.655 64.0381 252.92 64.8327 252.92 65.8132C252.92 66.7932 253.655 67.5882 254.561 67.5882Z" fill="white"/>
<g opacity="0.54">
<path opacity="0.54" d="M215.155 78.7882C215.654 78.7168 216.147 78.6063 216.631 78.4572L222.187 76.7659C223.887 76.2473 225.676 75.6729 226.883 74.2728C229.118 71.676 228.395 67.5514 227.528 64.1289C226.823 61.3287 226.115 58.5285 225.407 55.7282C224.92 53.7976 224.418 51.835 223.448 50.1437C222.478 48.4524 220.943 47.0005 219.114 46.6893C217.767 46.4619 216.402 46.8529 215.085 47.2398L209.755 48.8354C208.006 49.3499 206.161 49.9283 204.937 51.3763C202.76 53.9492 203.461 57.986 204.295 61.3486L206.423 69.9448C207.729 75.1104 210.175 79.4664 215.155 78.7882Z" fill="#3FBDF1"/>
<path opacity="0.54" d="M214.786 67.0651C215.115 67.4125 215.523 67.6598 215.969 67.7827C216.415 67.9056 216.882 67.8992 217.325 67.7647C217.768 67.6299 218.17 67.3718 218.491 67.0156C218.812 66.6598 219.041 66.2186 219.154 65.7368L219.774 63.1121L220.39 60.4833C220.503 60.0015 220.497 59.4957 220.372 59.0174C220.247 58.5387 220.008 58.1044 219.679 57.7577C219.349 57.4107 218.941 57.1638 218.496 57.0413C218.05 56.9192 217.582 56.9256 217.14 57.0608L214.731 57.7948L212.318 58.5288C211.876 58.6648 211.476 58.9245 211.156 59.2811C210.836 59.6377 210.609 60.0793 210.497 60.5611C210.385 61.0426 210.392 61.548 210.517 62.0259C210.643 62.5037 210.882 62.9373 211.212 63.2836L213.008 65.1743L214.786 67.0651Z" fill="white"/>
</g>
</svg>
